<svg xmlns="http://www.w3.org/2000/svg" viewBox="0 0 64 64" role="img" aria-labelledby="title desc">
  <title id="title">AI education icon</title>
  <desc id="desc">A navy and gold AI monogram with academic and circuit details.</desc>
  <defs>
    <linearGradient id="bg" x1="8" y1="4" x2="56" y2="60" gradientUnits="userSpaceOnUse">
      <stop stop-color="#092b4f"/>
      <stop offset="0.55" stop-color="#061f3c"/>
      <stop offset="1" stop-color="#041429"/>
    </linearGradient>
    <linearGradient id="gold" x1="14" y1="11" x2="52" y2="56" gradientUnits="userSpaceOnUse">
      <stop stop-color="#f3bf5a"/>
      <stop offset="1" stop-color="#c9952f"/>
    </linearGradient>
  </defs>
  <rect width="64" height="64" rx="14" fill="url(#bg)"/>
  <path d="M14 43c5.5 4.4 11.5 6.6 18 6.6s12.5-2.2 18-6.6" fill="none" stroke="url(#gold)" stroke-width="3.2" stroke-linecap="round"/>
  <path d="M16 21 32 13l16 8-16 8-16-8Z" fill="none" stroke="url(#gold)" stroke-width="3.2" stroke-linejoin="round"/>
  <path d="M23 26v6.4c5.2 3.1 12.8 3.1 18 0V26" fill="none" stroke="#f8fafc" stroke-width="2.5" stroke-linecap="round"/>
  <path d="M46 22v13" fill="none" stroke="url(#gold)" stroke-width="2.5" stroke-linecap="round"/>
  <circle cx="46" cy="37" r="2.4" fill="#f3bf5a"/>
  <path d="M20 38h5.5m13 0H44m-18.5 0 4-11h5l4 11m-10.8-3.8h8.6" fill="none" stroke="#f8fafc" stroke-width="3.4" stroke-linecap="round" stroke-linejoin="round"/>
  <path d="M32 30v8" fill="none" stroke="#f8fafc" stroke-width="3.4" stroke-linecap="round"/>
  <circle cx="14" cy="43" r="2.2" fill="#f3bf5a"/>
  <circle cx="50" cy="43" r="2.2" fill="#f3bf5a"/>
</svg>
