<?xml version="1.0" encoding="UTF-8"?>
<!DOCTYPE svg PUBLIC "-//W3C//DTD SVG 1.1//EN" "http://www.w3.org/Graphics/SVG/1.1/DTD/svg11.dtd">
<!-- Creator: CorelDRAW -->
<svg xmlns="http://www.w3.org/2000/svg" xml:space="preserve" width="84.7389mm" height="8.6645mm" version="1.1" style="shape-rendering:geometricPrecision; text-rendering:geometricPrecision; image-rendering:optimizeQuality; fill-rule:evenodd; clip-rule:evenodd"
viewBox="0 0 7747.4 792.17"
 xmlns:xlink="http://www.w3.org/1999/xlink"
 xmlns:xodm="http://www.corel.com/coreldraw/odm/2003">
 <defs>
  <style type="text/css">
   <![CDATA[
    .str0 {stroke:#FEFEFE;stroke-width:5.03;stroke-miterlimit:22.9256}
    .str1 {stroke:#FA6125;stroke-width:6.97;stroke-miterlimit:22.9256}
    .fil9 {fill:none}
    .fil5 {fill:#005196}
    .fil2 {fill:#2B2A29}
    .fil3 {fill:#434242}
    .fil7 {fill:#5AB4B4}
    .fil6 {fill:#D7B46E}
    .fil11 {fill:#FA6125}
    .fil4 {fill:#FEFEFE}
    .fil10 {fill:#FEFEFE;fill-rule:nonzero}
    .fil8 {fill:#10072F;fill-rule:nonzero}
    .fil12 {fill:#FA6125;fill-rule:nonzero}
    .fil0 {fill:#FECC00;fill-rule:nonzero}
    .fil1 {fill:#FEFEFE;fill-rule:nonzero}
   ]]>
  </style>
 </defs>
 <g id="Layer_x0020_1">
  <metadata id="CorelCorpID_0Corel-Layer"/>
  <g id="_2618498853328">
   <path class="fil0" d="M568.25 561.59l0 -86.01 17.69 0 0 86.01 -17.69 0zm36.15 0l0 -86.01 18.53 0 34.94 59.08 0 -59.08 17.47 0 0 86.01 -18.28 0 -35.19 -59.1 0 59.1 -17.45 0 -0.03 0zm84.71 -26.55l17.47 0c0.66,4.71 2.59,8.19 5.78,10.46 3.19,2.27 7.82,3.41 13.86,3.41 5.11,0 9.01,-0.92 11.62,-2.76 2.61,-1.83 3.91,-4.53 3.91,-8.09 0,-5.22 -7.5,-9.53 -22.48,-12.96l-0.51 -0.13c-0.37,-0.08 -1.01,-0.22 -1.81,-0.4 -8.03,-1.76 -13.73,-3.73 -17.16,-5.92 -3.04,-1.92 -5.34,-4.55 -6.94,-7.85 -1.59,-3.29 -2.4,-7.18 -2.4,-11.66 0,-8.38 2.85,-14.79 8.54,-19.26 5.69,-4.47 13.88,-6.7 24.62,-6.7 10.05,0 17.9,2.39 23.57,7.15 5.66,4.76 8.62,11.46 8.94,20.13l-16.99 0c-0.32,-4.17 -1.92,-7.33 -4.78,-9.53 -2.9,-2.18 -6.98,-3.26 -12.33,-3.26 -4.63,0 -8.21,0.9 -10.7,2.71 -2.51,1.81 -3.78,4.41 -3.78,7.74 0,4.55 4.89,7.97 14.66,10.21 2.65,0.64 4.71,1.12 6.19,1.48 6.28,1.6 10.72,2.83 13.36,3.73 2.61,0.9 4.9,1.89 6.87,2.97 3.51,1.95 6.12,4.53 7.87,7.73 1.76,3.2 2.63,7.07 2.63,11.55 0,8.94 -3.01,15.9 -9.05,20.82 -6.04,4.93 -14.56,7.39 -25.53,7.39 -10.84,0 -19.33,-2.51 -25.48,-7.53 -6.16,-5.02 -9.47,-12.16 -9.93,-21.41l-0.03 -0.01zm101.58 26.55l0 -70.7 -25.5 0 0 -15.31 68.56 0 0 15.31 -25.35 0 0 70.7 -17.69 0 -0.02 0zm53.85 0l0 -86.01 17.69 0 0 86.01 -17.69 0zm53.97 0l0 -70.7 -25.48 0 0 -15.31 68.54 0 0 15.31 -25.35 0 0 70.7 -17.69 0 -0.02 0zm52.77 -86.25l17.83 0 0 53.96c0,6.63 1.31,11.51 3.97,14.56 2.65,3.05 6.86,4.58 12.65,4.58 5.83,0 10.08,-1.52 12.74,-4.55 2.68,-3.05 4.01,-7.92 4.01,-14.58l0 -53.96 17.69 0 0 55.86c0,10.58 -2.94,18.65 -8.85,24.31 -5.91,5.64 -14.39,8.47 -25.48,8.47 -11.19,0 -19.74,-2.8 -25.66,-8.43 -5.95,-5.64 -8.91,-13.77 -8.91,-24.36l0 -55.86 0.01 0.01zm104.05 86.25l0 -70.7 -25.48 0 0 -15.31 68.54 0 0 15.31 -25.35 0 0 70.7 -17.69 0 -0.02 0zm53.27 0l0 -86.01 62.48 0 0 14.95 -45.01 0 0 18.3 41.17 0 0 14.73 -41.17 0 0 22.13 47.13 0 0 15.91 -64.58 0 -0.02 -0.01zm207.9 0l0 -86.01 60.06 0 0 14.95 -42.59 0 0 19.5 37.32 0 0 14.97 -37.32 0 0 36.62 -17.47 0 0 -0.02zm-80.02 -42.95c0,9.47 2.09,16.81 6.3,22.05 4.21,5.25 10.08,7.85 17.63,7.85 7.63,0 13.56,-2.61 17.8,-7.85 4.25,-5.24 6.36,-12.58 6.36,-22.05 0,-9.47 -2.12,-16.8 -6.36,-22.05 -4.25,-5.24 -10.17,-7.85 -17.8,-7.85 -7.53,0 -13.41,2.61 -17.63,7.83 -4.21,5.19 -6.3,12.56 -6.3,22.07l0 0.01zm-18.08 0c0,-13.89 3.79,-24.94 11.36,-33.11 7.58,-8.15 17.77,-12.24 30.62,-12.24 12.83,0 23.09,4.08 30.67,12.26 7.62,8.21 11.43,19.2 11.43,33.08 0,13.86 -3.8,24.89 -11.43,33.08 -7.59,8.17 -17.85,12.26 -30.67,12.26 -12.85,0 -23.04,-4.08 -30.62,-12.26 -7.58,-8.19 -11.36,-19.21 -11.36,-33.08l0 0.01zm-618.7 98.88l-11.92 36.62 23.88 0 -11.95 -36.62 -0.01 0zm-10.28 -17.22l20.43 0 31.03 86 -18.57 0 -5.83 -17.69 -33.33 0 -5.67 17.69 -18.64 0 30.61 -86 -0.03 0zm60.31 86.01l0 -86 62.48 0 0 14.95 -45.01 0 0 18.3 41.17 0 0 14.71 -41.17 0 0 22.13 47.13 0 0 15.91 -64.6 0 0 -0.01zm95.81 -48.45l20.82 0c4.53,0 7.85,-0.92 9.97,-2.73 2.15,-1.83 3.19,-4.7 3.19,-8.62 0,-3.73 -1.03,-6.56 -3.09,-8.47 -2.08,-1.92 -5.14,-2.88 -9.25,-2.88l-21.63 0 0 22.72 0 -0.02zm-17.7 48.45l0 -86 41.75 0c9.39,0 16.33,1.97 20.85,5.99 4.53,4 6.78,10.14 6.78,18.39 0,5.24 -1.1,9.63 -3.32,13.12 -2.19,3.49 -5.37,5.9 -9.5,7.18 3.73,1.33 6.38,3.35 7.95,6.07 1.59,2.73 2.48,6.98 2.72,12.74l0.37 10.17c0,0.08 0,0.19 0,0.37 0.13,5.14 1.24,8.26 3.36,9.34l0 2.63 -19.38 0c-0.63,-1.22 -1.1,-2.69 -1.44,-4.46 -0.32,-1.78 -0.51,-3.9 -0.6,-6.34l-0.24 -9.07c-0.19,-5.34 -1.19,-8.93 -3.01,-10.81 -1.81,-1.88 -5.08,-2.8 -9.79,-2.8l-18.78 0 0 33.49 -17.71 0 -0.02 -0.01zm99.75 -42.94c0,9.47 2.09,16.81 6.3,22.05 4.21,5.24 10.08,7.85 17.63,7.85 7.63,0 13.56,-2.61 17.8,-7.85 4.25,-5.24 6.36,-12.58 6.36,-22.05 0,-9.47 -2.12,-16.8 -6.36,-22.05 -4.25,-5.24 -10.17,-7.85 -17.8,-7.85 -7.53,0 -13.41,2.61 -17.63,7.83 -4.21,5.19 -6.3,12.56 -6.3,22.07l0 0.01zm-18.07 0c0,-13.89 3.79,-24.94 11.36,-33.11 7.58,-8.15 17.77,-12.24 30.62,-12.24 12.83,0 23.09,4.08 30.67,12.26 7.62,8.21 11.43,19.2 11.43,33.08 0,13.86 -3.8,24.89 -11.43,33.08 -7.59,8.17 -17.83,12.26 -30.67,12.26 -12.85,0 -23.04,-4.08 -30.62,-12.26 -7.58,-8.19 -11.36,-19.21 -11.36,-33.08l0 0.01zm98.09 42.94l0 -86 18.53 0 34.95 59.08 0 -59.08 17.45 0 0 86 -18.28 0 -35.19 -59.08 0 59.08 -17.47 0zm120.7 -68.78l-11.92 36.62 23.89 0 -11.97 -36.62zm-10.29 -17.22l20.43 0 31.03 86 -18.59 0 -5.83 -17.69 -33.33 0 -5.66 17.69 -18.64 0 30.59 -86zm57.74 -0.24l17.83 0 0 53.96c0,6.63 1.31,11.51 3.97,14.56 2.65,3.05 6.86,4.58 12.65,4.58 5.83,0 10.08,-1.52 12.74,-4.54 2.68,-3.05 4.01,-7.92 4.01,-14.58l0 -53.96 17.69 0 0 55.86c0,10.58 -2.95,18.65 -8.85,24.3 -5.91,5.64 -14.41,8.47 -25.48,8.47 -11.19,0 -19.74,-2.82 -25.66,-8.44 -5.95,-5.64 -8.91,-13.75 -8.91,-24.34l0 -55.86 0.01 0zm104.05 86.24l0 -70.7 -25.5 0 0 -15.31 68.56 0 0 15.31 -25.35 0 0 70.7 -17.69 0 -0.02 0zm53.85 0l0 -86 17.69 0 0 86 -17.69 0zm111.04 -29.54c-0.66,9.76 -4.43,17.54 -11.3,23.3 -6.87,5.77 -15.84,8.64 -26.89,8.64 -12.74,0 -22.63,-3.97 -29.68,-11.92 -7.09,-7.94 -10.61,-19.09 -10.61,-33.43 0,-14.66 3.61,-25.86 10.81,-33.66 7.2,-7.8 17.55,-11.68 31.07,-11.68 10.96,0 19.65,2.68 25.99,8.04 6.38,5.37 9.86,12.92 10.49,22.71l-17.47 0c-0.72,-4.86 -2.73,-8.58 -5.93,-11.14 -3.24,-2.55 -7.61,-3.83 -13.08,-3.83 -7.77,0 -13.7,2.51 -17.75,7.53 -4.05,5.02 -6.06,12.36 -6.06,22.02 0,9.33 2,16.57 6.04,21.65 4.02,5.1 9.76,7.66 17.19,7.66 5.37,0 9.76,-1.38 13.18,-4.11 3.43,-2.73 5.66,-6.68 6.66,-11.8l17.34 0 0.01 0.04zm46.16 -39.24l-11.92 36.62 23.88 0 -11.95 -36.62 -0.01 0zm-10.28 -17.22l20.43 0 31.03 86 -18.57 0 -5.83 -17.69 -33.33 0 -5.67 17.69 -18.62 0 30.59 -86 -0.03 0zm60.31 86.01l0 -86 17.69 0 0 70.09 41.99 0 0 15.91 -59.69 0 0.01 0zm104.81 0l0 -86 62.48 0 0 14.95 -45.01 0 0 18.3 41.15 0 0 14.71 -41.15 0 0 22.13 47.13 0 0 15.91 -64.6 0 0 -0.01zm78.1 0l0 -86 18.53 0 34.95 59.08 0 -59.08 17.47 0 0 86 -18.28 0 -35.19 -59.08 0 59.08 -17.47 0 -0.02 0zm150.59 -10.18c-3.17,4.32 -6.81,7.5 -10.88,9.53 -4.08,2.02 -8.85,3.04 -14.34,3.04 -12.04,0 -21.78,-4.2 -29.23,-12.53 -7.45,-8.35 -11.19,-19.33 -11.19,-32.9 0,-13.7 3.72,-24.66 11.16,-32.9 7.44,-8.22 17.34,-12.33 29.71,-12.33 10.78,0 19.58,2.59 26.4,7.74 6.8,5.17 10.87,12.26 12.13,21.31l-18.07 0c-1.1,-4.49 -3.32,-7.88 -6.68,-10.24 -3.36,-2.34 -7.74,-3.51 -13.15,-3.51 -7.19,0 -12.85,2.63 -16.95,7.92 -4.11,5.28 -6.16,12.56 -6.16,21.87 0,9.34 2.13,16.66 6.42,21.97 4.26,5.28 10.14,7.94 17.63,7.94 5.6,0 10.29,-1.65 14.06,-4.96 3.76,-3.29 6.1,-7.82 7,-13.59l-19.47 0 0 -14.71 35.62 0 0 46.54 -11.89 0 -2.16 -10.17 0.02 -0.02zm31.62 10.18l0 -86 17.69 0 0 86 -17.69 0zm36.15 0l0 -86 18.51 0 34.95 59.08 0 -59.08 17.47 0 0 86 -18.28 0 -35.19 -59.08 0 59.08 -17.45 0 -0.02 0zm88.66 0l0 -86 62.48 0 0 14.95 -45.01 0 0 18.3 41.17 0 0 14.71 -41.17 0 0 22.13 47.13 0 0 15.91 -64.6 0 0 -0.01zm78.11 0l0 -86 62.48 0 0 14.95 -45.01 0 0 18.3 41.17 0 0 14.71 -41.17 0 0 22.13 47.15 0 0 15.91 -64.6 0 -0.02 -0.01zm95.8 -48.45l20.82 0c4.53,0 7.85,-0.92 9.97,-2.73 2.15,-1.83 3.19,-4.7 3.19,-8.62 0,-3.73 -1.03,-6.56 -3.09,-8.47 -2.08,-1.92 -5.14,-2.88 -9.25,-2.88l-21.63 0 0 22.72 0 -0.02zm-17.7 48.45l0 -86 41.74 0c9.39,0 16.33,1.97 20.85,5.99 4.53,4 6.78,10.14 6.78,18.39 0,5.24 -1.1,9.63 -3.32,13.12 -2.19,3.49 -5.37,5.9 -9.5,7.18 3.73,1.33 6.38,3.35 7.95,6.07 1.57,2.73 2.47,6.98 2.71,12.74l0.37 10.17c0,0.08 0,0.19 0,0.37 0.13,5.14 1.24,8.26 3.36,9.34l0 2.63 -19.38 0c-0.63,-1.22 -1.1,-2.69 -1.44,-4.46 -0.32,-1.78 -0.51,-3.9 -0.6,-6.34l-0.25 -9.07c-0.19,-5.34 -1.19,-8.93 -3.01,-10.81 -1.81,-1.88 -5.08,-2.8 -9.78,-2.8l-18.8 0 0 33.49 -17.69 0 0.01 -0.01zm85.99 0l0 -86 17.71 0 0 86 -17.71 0zm36.16 0l0 -86 18.53 0 34.95 59.08 0 -59.08 17.45 0 0 86 -18.28 0 -35.19 -59.08 0 59.08 -17.47 0zm150.58 -10.18c-3.19,4.32 -6.83,7.5 -10.9,9.53 -4.08,2.02 -8.85,3.04 -14.34,3.04 -12.04,0 -21.78,-4.2 -29.21,-12.53 -7.45,-8.35 -11.19,-19.33 -11.19,-32.9 0,-13.7 3.73,-24.66 11.16,-32.9 7.44,-8.22 17.34,-12.33 29.73,-12.33 10.78,0 19.57,2.59 26.4,7.74 6.8,5.17 10.87,12.26 12.13,21.31l-18.06 0c-1.1,-4.49 -3.32,-7.88 -6.68,-10.24 -3.37,-2.34 -7.76,-3.51 -13.17,-3.51 -7.19,0 -12.83,2.63 -16.94,7.92 -4.11,5.28 -6.16,12.56 -6.16,21.87 0,9.34 2.15,16.66 6.42,21.97 4.26,5.28 10.14,7.94 17.63,7.94 5.6,0 10.29,-1.65 14.06,-4.96 3.78,-3.29 6.1,-7.82 7,-13.59l-19.47 0 0 -14.71 35.62 0 0 46.54 -11.87 0 -2.16 -10.17 -0.02 -0.02z"/>
   <path class="fil1" d="M562.82 417.54l0 -260.49 53.61 0 0 260.49 -53.61 0zm206.51 -208.32l-36.11 110.86 72.34 0 -36.23 -110.86 0.01 0zm-31.15 -52.18l61.9 0 93.96 260.49 -56.27 0 -17.69 -53.62 -100.96 0 -17.15 53.62 -56.45 0 92.69 -260.49 -0.02 0zm236.27 113.76l63.04 0c13.7,0 23.8,-2.77 30.19,-8.27 6.46,-5.56 9.67,-14.25 9.67,-26.15 0,-11.28 -3.14,-19.87 -9.36,-25.66 -6.28,-5.87 -15.58,-8.76 -28.01,-8.76l-65.52 0 0 68.85 -0.01 -0.01zm-53.61 146.73l0 -260.49 126.44 0c28.45,0 49.44,6.04 63.15,18.18 13.7,12.13 20.53,30.74 20.53,55.67 0,15.88 -3.32,29.16 -10.02,39.73 -6.65,10.63 -16.23,17.87 -28.8,21.75 11.28,4.04 19.33,10.14 24.09,18.41 4.76,8.27 7.48,21.14 8.21,38.57l1.09 30.79c0,0.25 0,0.6 0,1.09 0.37,15.58 3.75,25.01 10.14,28.32l0 7.97 -58.7 0c-1.87,-3.68 -3.32,-8.15 -4.34,-13.53 -0.98,-5.38 -1.57,-11.78 -1.81,-19.2l-0.72 -27.47c-0.6,-16.19 -3.62,-27.05 -9.12,-32.72 -5.49,-5.67 -15.4,-8.51 -29.65,-8.51l-56.89 0 0 101.45 -53.61 0 0.01 -0.02zm258.62 0l0 -260.49 189.24 0 0 45.29 -136.34 0 0 55.43 124.69 0 0 44.57 -124.69 0 0 67.01 142.73 0 0 48.19 -195.63 0z"/>
   <path class="fil2" d="M418.68 347.49l-0.05 1.07c-0.07,1.95 -0.14,3.9 -0.22,5.82l0.27 -6.89 -0.01 0zm-11.71 104.56c-18.14,83.23 -61.97,154.9 -166.61,196.53 -103.58,-42.23 -148.17,-110.75 -166.84,-196.44l166.84 -75.51 166.61 75.4 0 0.02z"/>
   <path class="fil1" d="M426.04 347.75l-0.05 1.09 -0.11 2.91 0 0.03 -0.13 2.91 -14.7 -0.57 0.13 -2.91 0 0 0.11 -2.88 0.05 -1.09 14.7 0.51zm-11.87 105.87c-9.29,42.61 -25.22,82.35 -52.27,116.86 -27.05,34.48 -65.17,63.6 -118.83,84.95l-5.48 0c-53.05,-21.6 -91.06,-50.07 -118.27,-84.16 -27.19,-34.09 -43.46,-73.65 -53.01,-117.54l-1.27 -5.81 5.43 -2.47 166.84 -75.51 3.03 -1.36 3.04 1.36 166.61 75.41 5.45 2.47 -1.27 5.81 0.01 -0.02zm-63.88 107.75c24.33,-30.99 39.15,-66.68 48.15,-105.08l-158.11 -71.54 -158.31 71.65c9.23,39.48 24.36,75.05 48.81,105.7 25.19,31.57 60.42,58.09 109.56,78.54 49.53,-20.19 84.8,-47.32 109.88,-79.29l0.03 0.01z"/>
   <path class="fil3" d="M58.39 219.78l363.59 0c0.22,75.49 2.85,153.57 -12.42,223.59l-169.31 -76.55 -169.53 76.66c-14.36,-65.9 -13.6,-141.79 -12.33,-223.68l0.02 -0.02z"/>
   <path class="fil1" d="M58.39 212.4l370.9 0 0.03 7.36c0.02,8.86 0.08,17.83 0.14,26.81 0.46,67.43 0.92,135.89 -12.72,198.31l-1.94 8.89 -8.26 -3.73 -166.31 -75.2 -166.51 75.32 -8.27 3.73 -1.94 -8.88c-7.26,-33.33 -10.7,-69.23 -12.16,-107.15 -1.44,-37.56 -0.93,-77.14 -0.27,-118.22l0.11 -7.24 7.21 0 -0.01 0.01zm356.31 14.73l-349.07 0c-0.59,38.22 -0.95,75.09 0.4,110.22 1.3,33.62 4.2,65.64 10.05,95.62l161.18 -72.89 3.03 -1.36 3.03 1.36 160.95 72.78c11.46,-58.68 11.02,-122.92 10.61,-186.23 -0.05,-6.51 -0.1,-13.01 -0.13,-19.5l-0.04 0z"/>
   <path class="fil4" d="M289.27 365.01l130.26 6.44 -0.02 0.07 -129.76 6.42 -3.24 0 -0.14 0.75 2.56 0.8 120.35 43.43 -100.14 -24.94 -68.97 -31.18 -68.41 30.94 -101.13 25.19 120.35 -43.43 2.56 -0.8 -0.14 -0.75 -2.76 0 -130.06 -6.42 -0.02 -0.08 130.08 -6.42 2.76 0 0.16 -0.75 -2.56 -0.78 -120.37 -43.44 125.2 31.15 3.03 0.93 0.48 -0.67 -2.09 -1.48 -95.3 -75.17 104.88 65 2.48 1.74c0.24,-0.16 0.48,-0.34 0.71,-0.48l-1.36 -1.97 -58.73 -97.84 71.92 91.03 1.6 2.32 0.88 -0.27 -0.48 -2.24 -15.11 -108.7 30.26 106.06 0.59 2.63 0.92 0 0.46 -2.24 30.37 -106.45 -15.03 108.3 -0.56 2.65 0.86 0.27 1.36 -1.97 72.16 -91.36 -58.49 97.47 -1.63 2.32c0.24,0.16 0.48,0.34 0.71,0.48l2.09 -1.46 105.25 -65.27 -94.93 74.92 -2.47 1.71 0.48 0.69 2.56 -0.78 125.65 -31.29 -119.91 43.3 -3.01 0.92c0.05,0.25 0.13,0.5 0.14,0.75l2.74 0 -0.02 -0.06z"/>
   <g>
    <path class="fil1" d="M419.16 378.81l-130.26 -6.44 0.72 -14.7 130.26 6.44 6.92 8.38 -7.65 6.31 0.01 0.01zm0.72 -14.7l8.06 0.4 -1.14 8 -6.92 -8.38 0 -0.02zm-7.66 6.37l0.02 -0.07 14.57 2.09 -0.02 0.07 -6.92 6.31 -7.65 -8.38 0 -0.02zm14.57 2.08l-0.86 6.01 -6.06 0.31 6.92 -6.31 0 -0.01zm-137.41 -1.97l129.76 -6.42 0.72 14.7 -129.76 6.42 -0.37 0.02 -0.37 -14.71 0.01 -0.01zm0.72 14.7l-0.18 0.02 -0.18 0 0.37 -0.02zm-3.59 -14.71l3.24 0 0 14.73 -3.24 0 -7.21 -8.76 7.21 -5.95 0 -0.02zm-7.21 5.94l1.15 -5.95 6.06 0 -7.21 5.95zm-0.14 0.76l0.14 -0.75 14.45 2.82 -0.14 0.75 -9.41 5.63 -5.05 -8.44 0.01 -0.01zm5.04 8.44l-6.3 -1.95 1.27 -6.48 5.05 8.44 -0.02 -0.01zm2.57 0.8l-2.56 -0.8 4.37 -14.06 2.56 0.8 0.31 0.11 -4.68 13.94 0 0.01zm4.37 -14.06l0.31 0.11 -0.27 -0.1 -0.05 -0.02 0 0.01zm115.67 57.39l-120.35 -43.43 4.99 -13.85 120.35 43.43 -4.28 14.06 -0.71 -0.22 0 0.01zm-95.86 -39.01l100.14 24.94 -3.57 14.28 -100.14 -24.94 -1.25 -0.43 4.82 -13.85zm-3.57 14.28l-0.69 -0.16 -0.57 -0.27 1.25 0.43zm-64.17 -45.04l68.97 31.18 -6.07 13.41 -68.97 -31.18 0 -13.41 6.07 0zm-6.07 0l3.04 -1.36 3.04 1.36 -6.07 0zm-68.42 30.94l68.41 -30.94 6.07 13.41 -68.41 30.94 -1.25 0.43 -4.82 -13.85 0 0.01zm6.08 13.42l-0.57 0.27 -0.69 0.16 1.25 -0.43zm-105.95 11.34l101.13 -25.19 3.57 14.28 -101.13 25.19 -4.28 -14.06 0.71 -0.22zm124.62 -29.37l-120.35 43.43 -4.99 -13.85 120.35 -43.43 0.32 -0.11 4.66 13.94 0.01 0.02zm-4.99 -13.85l0.21 -0.07 0.11 -0.05 -0.32 0.11 0 0.01zm7.24 13.16l-2.56 0.8 -4.34 -14.06 2.56 -0.8 9.41 5.63 -5.05 8.44 -0.02 -0.01zm5.05 -8.45l1.27 6.48 -6.31 1.95 5.05 -8.44 -0.01 0.01zm-0.14 -0.75l0.14 0.75 -14.45 2.82 -0.14 -0.75 7.21 -8.76 7.21 5.95 0.02 -0.01zm-7.21 -5.95l6.06 0 1.15 5.95 -7.21 -5.95zm-2.76 0l2.76 0 0 14.73 -2.76 0 -0.37 -0.02 0.37 -14.71zm0 14.73l-0.18 0 -0.18 -0.02 0.37 0.02zm-129.71 -21.14l130.06 6.42 -0.72 14.7 -130.06 -6.42 -6.95 -6.54 7.68 -8.16 -0.01 0zm-0.72 14.7l-6.25 -0.31 -0.69 -6.23 6.95 6.54zm7.68 -8.25l0.02 0.08 -14.63 1.63 -0.02 -0.08 6.95 -8.16 7.68 6.54zm-14.63 1.63l-0.86 -7.77 7.82 -0.39 -6.95 8.16 -0.01 0zm137.75 0.13l-130.08 6.42 -0.72 -14.7 130.08 -6.42 0.37 -0.02 0.37 14.71 -0.01 0.01zm-0.72 -14.7l0.18 -0.02 0.18 0 -0.37 0.02zm3.12 14.71l-2.76 0 0 -14.73 2.76 0 7.21 8.85 -7.21 5.88zm7.21 -5.88l-1.22 5.88 -6.01 0 7.21 -5.88 0.01 0zm0.16 -0.75l-0.16 0.75 -14.44 -2.97 0.16 -0.75 9.34 -5.56 5.07 8.53 0.02 0zm-5.07 -8.53l6.42 1.95 -1.33 6.57 -5.07 -8.53 -0.01 0.01zm-2.56 -0.78l2.56 0.78 -4.28 14.09 -2.56 -0.78 -0.37 -0.13 4.64 -13.96 0.01 0zm-4.28 14.09l-0.16 -0.05 -0.18 -0.07 0.37 0.13 -0.02 0zm-115.73 -57.4l120.37 43.44 -4.99 13.85 -120.37 -43.44 4.26 -14.06 0.72 0.22 0.01 -0.01zm120.93 45.2l-125.2 -31.15 3.56 -14.28 125.2 31.15 0.39 0.11 -3.94 14.17 -0.01 0zm3.55 -14.28l0.19 0.05 0.19 0.07 -0.39 -0.11 0.01 -0.01zm-0.91 15.1l-3.03 -0.93 4.33 -14.06 3.03 0.93 3.83 11.3 -8.16 2.76zm8.16 -2.76l-3.08 4.32 -5.08 -1.56 8.16 -2.76 0 0.01zm0.47 -0.67l-0.48 0.67 -12 -8.54 0.48 -0.67 10.21 -1.77 1.78 10.31zm-1.78 -10.3l6.09 4.25 -4.31 6.04 -1.78 -10.31 0 0.02zm-2.08 -1.46l2.09 1.46 -8.43 12.07 -2.09 -1.46 -0.35 -0.25 8.78 -11.81 0 -0.01zm-8.43 12.06l-0.19 -0.14 -0.14 -0.13 0.35 0.25 -0.02 0.02zm-86.53 -87l95.3 75.19 -9.12 11.55 -95.3 -75.19 8.44 -12.04 0.69 0.48 0 0.02zm96.43 77.05l-104.88 -65 7.74 -12.51 104.88 65 0.35 0.22 -8.09 12.27 0 0.02zm7.75 -12.52l0.18 0.13 0.16 0.11 -0.35 -0.22 0 -0.02zm-5.63 14.02l-2.48 -1.74 8.44 -12.05 2.48 1.74 -0.05 12.08 -8.41 -0.03 0.02 0zm8.41 0.03l-4.22 2.91 -4.2 -2.94 8.41 0.03 0.01 0.01zm-9.53 -2.35l12.1 -8.37 -1.91 10.29 -0.16 0.1 -0.14 0.1 -0.18 0.13 -0.16 0.13 -8.37 -12.1 0.16 -0.13 0.18 -0.13 0.19 -0.14 0.19 -0.14 -1.91 10.29 0 -0.02zm12.1 -8.37l4.22 6.1 -6.13 4.17 1.91 -10.29 -0.01 0.02zm-1.36 -1.97l1.36 1.97 -12.1 8.37 -1.36 -1.97 -0.25 -0.4 12.36 -7.97 -0.01 0zm-12.1 8.37l-0.11 -0.16 -0.14 -0.25 0.25 0.4zm-46.38 -105.82l58.73 97.84 -12.63 7.56 -58.73 -97.84 12.1 -8.35 0.53 0.78 0 0.01zm59.82 99.38l-71.92 -91.03 11.55 -9.12 71.92 91.03 0.27 0.37 -11.83 8.76 0.02 0zm11.55 -9.13l0.14 0.18 0.13 0.16 -0.27 -0.37 0 0.02zm-10.21 11.08l-1.6 -2.31 12.1 -8.41 1.6 2.31 -3.85 11.23 -8.24 -2.82 -0.01 0zm8.24 2.82l-5.16 1.6 -3.08 -4.43 8.24 2.82 0 0.02zm0.88 -0.28l-0.88 0.27 -4.39 -14.04 0.88 -0.27 9.39 5.46 -5 8.58zm5 -8.58l1.42 6.56 -6.42 2 5 -8.58 0 0.02zm-0.48 -2.25l0.48 2.24 -14.39 3.11 -0.48 -2.24 -0.1 -0.54 14.47 -2.56 0.02 -0.01zm-14.39 3.11l-0.05 -0.21 -0.05 -0.34 0.1 0.54 -0.01 0.01zm-0.63 -111.28l15.11 108.7 -14.57 2.03 -15.11 -108.7 14.36 -3.04 0.21 1.01zm15.9 109.1l-30.26 -106.06 14.15 -4.04 30.26 106.06 0.11 0.42 -14.26 3.62zm14.15 -4.04l0.07 0.25 0.05 0.16 -0.11 -0.42 -0.01 0.01zm-13.68 6.26l-0.59 -2.63 14.38 -3.2 0.59 2.63 -7.19 8.96 -7.19 -5.75 -0.01 -0.01zm7.19 5.75l-5.91 0 -1.28 -5.75 7.19 5.75zm0.91 0l-0.92 0 0 -14.73 0.92 0 7.21 8.83 -7.21 5.9zm7.22 -5.9l-1.2 5.9 -6.02 0 7.21 -5.9zm0.46 -2.24l-0.46 2.24 -14.44 -2.94 0.46 -2.24 0.14 -0.54 14.29 3.49 0.01 -0.01zm-14.44 -2.93l0.05 -0.24 0.1 -0.31 -0.14 0.54 -0.01 0.01zm44.67 -102.97l-30.37 106.45 -14.15 -4.04 30.37 -106.45 14.36 3.04 -0.21 1.01zm-29.4 105.25l15.03 -108.3 14.57 2.03 -15.03 108.3 -0.08 0.5 -14.49 -2.53zm14.57 2.04l-0.05 0.34 -0.05 0.16 0.08 -0.5 0.01 0zm-15.04 0.11l0.56 -2.65 14.41 3.04 -0.56 2.65 -9.42 5.5 -4.99 -8.54zm4.98 8.54l-6.36 -2 1.38 -6.54 4.99 8.54 -0.01 0zm0.87 0.28l-0.86 -0.27 4.43 -14.04 0.86 0.27 3.83 11.22 -8.26 2.83zm8.26 -2.83l-3.09 4.46 -5.17 -1.63 8.26 -2.83 -0.01 -0.01zm1.37 -1.97l-1.36 1.97 -12.1 -8.38 1.36 -1.97 0.27 -0.37 11.83 8.76 0 -0.01zm-12.1 -8.38l0.16 -0.25 0.1 -0.13 -0.27 0.37 0 0.01zm83.98 -82.6l-72.16 91.36 -11.55 -9.12 72.16 -91.36 12.1 8.35 -0.53 0.78 -0.02 0zm-70.57 89.12l58.49 -97.47 12.63 7.56 -58.49 97.47 -0.27 0.43 -12.34 -8 -0.01 0.01zm12.62 7.56l-0.16 0.27 -0.13 0.16 0.27 -0.43 0.01 0zm-13.97 -5.67l1.63 -2.32 12.07 8.43 -1.63 2.32 -10.22 1.84 -1.86 -10.27 0.01 0zm1.86 10.27l-6.07 -4.21 4.23 -6.06 1.86 10.27 -0.02 0zm0.68 -11.6l8.43 12.07 -8.25 0.13 -0.24 -0.16 -0.27 -0.19 -0.18 -0.13 -0.16 -0.13 8.37 -12.1 0.16 0.13 0.18 0.13 0.07 0.05 0.13 0.08 -8.25 0.13zm8.43 12.06l-4.08 2.85 -4.17 -2.73 8.25 -0.13 0 0.01zm2.09 -1.46l-2.09 1.46 -8.43 -12.07 2.09 -1.46 0.34 -0.22 8.09 12.29zm-8.43 -12.06l0.13 -0.08 0.22 -0.14 -0.34 0.22 -0.01 0zm113.35 -52.98l-105.25 65.27 -7.74 -12.51 105.25 -65.27 8.44 12.04 -0.69 0.48 -0.01 -0.01zm-103.38 62.88l94.93 -74.92 9.12 11.55 -94.93 74.92 -0.37 0.27 -8.75 -11.83 0 0.01zm9.12 11.55l-0.16 0.13 -0.22 0.16 0.37 -0.27 0 -0.01zm-11.22 -10.11l2.47 -1.71 8.37 12.1 -2.47 1.71 -10.21 -1.83 1.84 -10.29 0 0.01zm-1.84 10.29l-4.26 -6.06 6.1 -4.22 -1.84 10.29zm0.48 0.68l-0.48 -0.69 12.05 -8.47 0.48 0.69 -3.88 11.27 -8.17 -2.8 0 -0.01zm8.18 2.81l-5.11 1.56 -3.06 -4.37 8.17 2.8 0 0.01zm2.56 -0.79l-2.56 0.78 -4.32 -14.09 2.56 -0.78 0.37 -0.1 3.94 14.18 0 0.01zm-4.32 -14.08l0.13 -0.05 0.25 -0.07 -0.37 0.1 0 0.02zm129.59 -17.12l-125.65 31.29 -3.57 -14.28 125.65 -31.29 4.28 14.06 -0.71 0.22zm-124.18 29.25l119.91 -43.3 4.99 13.85 -119.91 43.3 -0.37 0.13 -4.64 -13.96 0.01 -0.02zm4.98 13.85l-0.18 0.07 -0.16 0.05 0.37 -0.13 -0.02 0zm-7.64 -13.05l3.01 -0.92 4.28 14.09 -3.01 0.92 -9.33 -5.49 5.06 -8.58 0 -0.02zm-5.06 8.58l-1.42 -6.62 6.48 -1.97 -5.06 8.58 -0.01 0zm7.34 -8.15l0 14.73 -7.34 -6.84 0.05 0.48 0 0.02 0 -0.02 -0.05 -0.22 14.39 -3.09 0.05 0.16 0.07 0.37 0.07 0.39 0.11 0.88 -7.34 -6.84 -0.01 -0.02zm0 14.72l-6.86 0 -0.48 -6.84 7.34 6.84zm2.74 0l-2.74 0 0 -14.73 2.74 0 0.37 0.02 -0.37 14.71zm0 -14.72l0.18 0 0.18 0.02 -0.37 -0.02z"/>
   </g>
   <path class="fil5" d="M418.68 347.49l-0.05 1.07c-0.07,1.95 -0.14,3.9 -0.22,5.82l0.27 -6.89 -0.01 0zm-11.71 104.56c-18.14,83.23 -61.97,154.9 -166.61,196.53 -103.58,-42.23 -148.17,-110.75 -166.84,-196.44l166.84 -75.51 166.61 75.4 0 0.02z"/>
   <path class="fil6" d="M58.39 219.78l363.59 0c0.22,75.49 2.85,153.57 -12.42,223.59l-169.31 -76.55 -169.53 76.66c-14.36,-65.9 -13.6,-141.79 -12.33,-223.68l0.02 -0.02z"/>
   <path class="fil4" d="M289.27 365.01l130.26 6.44 -0.02 0.07 -129.76 6.42 -3.24 0 -0.14 0.75 2.56 0.8 120.35 43.43 -100.14 -24.94 -68.97 -31.18 -68.41 30.94 -101.13 25.19 120.35 -43.43 2.56 -0.8 -0.14 -0.75 -2.76 0 -130.06 -6.42 -0.02 -0.08 130.08 -6.42 2.76 0 0.16 -0.75 -2.56 -0.78 -120.37 -43.44 125.2 31.15 3.03 0.93 0.48 -0.67 -2.09 -1.48 -95.3 -75.17 104.88 65 2.48 1.74c0.24,-0.16 0.48,-0.34 0.71,-0.48l-1.36 -1.97 -58.73 -97.84 71.92 91.03 1.6 2.32 0.88 -0.27 -0.48 -2.24 -15.11 -108.7 30.26 106.06 0.59 2.63 0.92 0 0.46 -2.24 30.37 -106.45 -15.03 108.3 -0.56 2.65 0.86 0.27 1.36 -1.97 72.16 -91.36 -58.49 97.47 -1.63 2.32c0.24,0.16 0.48,0.34 0.71,0.48l2.09 -1.46 105.25 -65.27 -94.93 74.92 -2.47 1.71 0.48 0.69 2.56 -0.78 125.65 -31.29 -119.91 43.3 -3.01 0.92c0.05,0.25 0.13,0.5 0.14,0.75l2.74 0 -0.02 -0.06z"/>
   <path class="fil1" d="M-0 473.6l29.52 -8.46 5.1 17.77 -5.32 1.52 -3.54 -12.37 -6.1 1.74 3.27 11.41 -5.43 1.56 -3.27 -11.41 -7.21 2.08 3.73 13.01 -5.45 1.56 -5.28 -18.43 -0.02 0.02zm8.87 30.59l28.65 -10.99 3.82 9.95c0.6,1.57 0.75,3.12 0.43,4.66 -0.32,1.54 -1.01,2.95 -2.03,4.29 -1.04,1.33 -2.36,2.53 -3.93,3.61 -1.56,1.07 -3.27,1.95 -5.14,2.68 -1.83,0.71 -3.68,1.19 -5.54,1.42 -1.88,0.25 -3.65,0.22 -5.31,-0.07 -1.65,-0.29 -3.11,-0.92 -4.37,-1.84 -1.27,-0.93 -2.2,-2.18 -2.8,-3.73l-3.82 -9.97 0.04 -0.01zm7.16 2.87l1.68 4.37c0.42,1.09 1.22,1.87 2.39,2.32 1.15,0.46 2.52,0.61 4.08,0.48 1.55,-0.14 3.11,-0.51 4.71,-1.12 1.63,-0.63 3.09,-1.41 4.34,-2.36 1.27,-0.95 2.18,-1.97 2.74,-3.09 0.57,-1.12 0.64,-2.23 0.22,-3.33l-1.68 -4.39 -18.49 7.1 0.01 0.01zm15.52 23.56l18.09 -8.44 2.21 4.75 -18.86 8.8c-1.48,0.69 -2.42,1.63 -2.85,2.83 -0.43,1.22 -0.39,2.39 0.14,3.53 0.54,1.15 1.41,1.95 2.61,2.4 1.22,0.45 2.55,0.34 4.02,-0.37l18.85 -8.8 2.36 5.07 -18.08 8.43c-2.26,1.04 -4.41,1.54 -6.42,1.44 -2.02,-0.1 -3.76,-0.66 -5.22,-1.68 -1.46,-1.01 -2.56,-2.31 -3.3,-3.9 -0.53,-1.12 -0.82,-2.36 -0.9,-3.65 -0.05,-1.31 0.16,-2.61 0.67,-3.9 0.48,-1.3 1.31,-2.5 2.42,-3.64 1.12,-1.12 2.53,-2.09 4.23,-2.88l0.02 0.02zm17.85 25.81c1.63,-0.95 3.35,-1.7 5.13,-2.29 1.8,-0.59 3.59,-0.88 5.39,-0.88 1.78,-0.02 3.47,0.4 5.05,1.24 1.57,0.85 2.9,2.19 3.97,4.05 0.22,0.39 0.37,0.69 0.46,0.9 0.54,1.12 0.85,2.32 0.91,3.62 0.07,1.31 -0.13,2.59 -0.54,3.88 -0.42,1.3 -1.09,2.5 -1.99,3.64 -0.91,1.12 -2.02,2.08 -3.35,2.84l-2.56 -4.43c1.38,-1.04 2.36,-2.24 2.91,-3.59 0.56,-1.33 0.42,-2.76 -0.43,-4.23 -0.72,-1.22 -1.77,-1.97 -3.12,-2.32 -1.35,-0.37 -2.85,-0.34 -4.5,0.07 -1.65,0.39 -3.26,1.04 -4.85,1.97 -1.56,0.95 -2.91,2.03 -4.04,3.26 -1.12,1.24 -1.89,2.51 -2.26,3.85 -0.37,1.33 -0.24,2.55 0.42,3.69 0.51,0.9 1.19,1.56 2,2 0.83,0.46 1.73,0.69 2.72,0.71 0.99,0.02 1.97,-0.16 2.95,-0.57l2.68 4.63c-1.1,0.54 -2.31,0.93 -3.64,1.15 -1.31,0.24 -2.68,0.22 -4.07,-0.02 -1.39,-0.24 -2.76,-0.8 -4.04,-1.68 -1.3,-0.9 -2.41,-2.15 -3.35,-3.78 -1.04,-1.81 -1.52,-3.61 -1.41,-5.37 0.11,-1.76 0.64,-3.41 1.59,-4.96 0.95,-1.56 2.13,-2.93 3.53,-4.17 1.39,-1.23 2.88,-2.29 4.44,-3.19l-0.01 -0.04zm4.55 35.78l29.71 -11.57 3.79 5.03 -19.14 25.62 -3.41 -4.53 3.83 -5.37 -5.38 -7.13 -6.01 2.47 -3.4 -4.52 0.01 0zm14.59 0.2l3.59 4.78 7.16 -9.18 -10.75 4.41 0 -0.01zm11.41 31.26l18.41 -17.16 -5.18 -5.54 4.05 -3.78 13.73 14.73 -4.05 3.78 -4.97 -5.34 -18.41 17.16 -3.58 -3.85 0.01 0zm17.33 16.9l20.14 -23.19 4.02 3.49 -20.14 23.19 -4.02 -3.49zm22.14 -1.32c1.51,-1.89 3.25,-3.61 5.25,-5.1 2,-1.51 4.25,-2.41 6.73,-2.73 2.48,-0.32 4.96,0.39 7.44,2.12 1.68,1.19 2.94,2.77 3.76,4.79 0.8,2 0.99,4.37 0.51,7.07 -0.48,2.71 -1.71,5.58 -3.73,8.65 -1.25,1.78 -2.59,3.3 -4.05,4.57 -1.44,1.28 -3,2.24 -4.64,2.88 -1.65,0.66 -3.36,0.88 -5.13,0.69 -1.76,-0.19 -3.53,-0.92 -5.28,-2.15 -1.33,-0.93 -2.42,-2.09 -3.3,-3.47 -0.86,-1.38 -1.42,-2.97 -1.63,-4.75 -0.21,-1.78 0.02,-3.75 0.66,-5.87 0.64,-2.13 1.77,-4.34 3.41,-6.68l0 -0.01zm15.43 -1.28c-1.1,-0.72 -2.34,-0.95 -3.73,-0.67 -1.39,0.27 -2.77,0.93 -4.18,1.97 -1.36,1.04 -2.59,2.29 -3.65,3.73 -0.99,1.48 -1.7,3 -2.13,4.54 -0.43,1.56 -0.48,3.04 -0.13,4.42 0.34,1.38 1.19,2.53 2.48,3.44 0.95,0.69 1.94,1.04 2.97,1.1 1.01,0.07 2,-0.11 3,-0.53 0.98,-0.43 1.92,-1.04 2.83,-1.86 0.9,-0.8 1.71,-1.73 2.45,-2.77 0.8,-1.15 1.44,-2.37 1.94,-3.62 0.48,-1.24 0.75,-2.48 0.83,-3.7 0.07,-1.24 -0.1,-2.37 -0.54,-3.43 -0.43,-1.06 -1.15,-1.94 -2.15,-2.63l0.01 0.01zm6.07 34.43l12.97 -27.82 4.82 2.24 0.48 23.19 8.8 -18.85 4.75 2.21 -12.98 27.84 -4.75 -2.21 -0.34 -23.48 -8.93 19.15 -4.82 -2.26 0 -0.01zm49.63 19.02l7.44 -29.79 17.31 4.31 -1.42 5.7 -12.13 -3.03 -1.54 6.16 10.87 2.71 -1.35 5.46 -10.87 -2.72 -3.11 12.5 -5.17 -1.3 -0.04 0zm29.19 -9.75c0.27,-2.41 0.85,-4.78 1.76,-7.1 0.91,-2.36 2.32,-4.29 4.26,-5.9 1.92,-1.59 4.41,-2.29 7.42,-2.15 2.07,0.11 3.97,0.8 5.72,2.08 1.77,1.27 3.16,3.17 4.2,5.71 1.03,2.53 1.51,5.64 1.42,9.32 -0.11,2.18 -0.45,4.18 -1.01,6.02 -0.57,1.86 -1.36,3.48 -2.42,4.9 -1.06,1.42 -2.39,2.52 -3.99,3.29 -1.6,0.77 -3.47,1.09 -5.61,0.98 -1.62,-0.08 -3.15,-0.48 -4.64,-1.2 -1.48,-0.71 -2.77,-1.76 -3.9,-3.17 -1.12,-1.39 -1.97,-3.17 -2.56,-5.32 -0.57,-2.15 -0.8,-4.64 -0.66,-7.48l0.01 0.03zm12.41 -9.27c-1.31,-0.03 -2.48,0.45 -3.53,1.42 -1.04,0.98 -1.88,2.27 -2.5,3.89 -0.61,1.6 -0.99,3.32 -1.12,5.11 -0.07,1.77 0.14,3.44 0.6,4.99 0.46,1.56 1.2,2.83 2.24,3.82 1.01,0.99 2.34,1.54 3.93,1.6 1.17,0.05 2.2,-0.14 3.09,-0.63 0.91,-0.48 1.65,-1.17 2.27,-2.05 0.61,-0.9 1.07,-1.91 1.42,-3.08 0.34,-1.15 0.54,-2.37 0.6,-3.64 0.08,-1.42 -0.02,-2.77 -0.27,-4.1 -0.25,-1.31 -0.69,-2.51 -1.25,-3.59 -0.59,-1.09 -1.33,-1.97 -2.27,-2.61 -0.93,-0.69 -2,-1.04 -3.2,-1.1l-0.03 -0.03zm23.83 24.94l-3.2 -30.54 14.18 -1.49c0.98,-0.1 1.88,0.02 2.76,0.37 0.86,0.34 1.62,0.85 2.29,1.52 0.66,0.69 1.2,1.48 1.6,2.41 0.42,0.93 0.69,1.92 0.78,3 0.16,1.49 -0.03,2.94 -0.56,4.39 -0.53,1.44 -1.41,2.71 -2.63,3.79 0.39,0.08 0.8,0.27 1.24,0.57 0.43,0.31 0.83,0.72 1.19,1.27 0.35,0.53 0.56,1.14 0.63,1.86l1.01 6.81c0.07,0.64 0.25,1.19 0.53,1.63 0.27,0.43 0.51,0.66 0.71,0.63l0.16 1.63 -5.56 0.59c-0.78,-1.71 -1.33,-3.79 -1.7,-6.24 -0.02,-0.6 -0.07,-1.44 -0.16,-2.53 -0.1,-0.88 -0.25,-1.54 -0.45,-1.97 -0.19,-0.42 -0.57,-0.71 -1.12,-0.86 -0.53,-0.14 -1.36,-0.16 -2.45,-0.05l-5.22 0.54 1.28 12.13 -5.31 0.56zm3.43 -18.32l6.77 -0.71c1.07,-0.11 1.86,-0.6 2.39,-1.46 0.51,-0.86 0.72,-1.81 0.63,-2.82 -0.11,-0.99 -0.5,-1.81 -1.2,-2.47 -0.69,-0.66 -1.59,-0.92 -2.71,-0.8l-6.67 0.71 0.78 7.55 0.01 0zm48.12 7.63l-11.51 -28.48 4.93 -1.99 9.39 23.22 11.31 -4.57 2.12 5.25 -16.26 6.56 0.02 0.01zm27.16 -12.23l-14.42 -27.11 4.7 -2.51 14.42 27.11 -4.7 2.5 0 0.01zm16.57 -8.79l-17.61 -25.14 9.52 -6.66c1.36,-0.95 2.77,-1.42 4.22,-1.44 1.44,-0.02 2.83,0.35 4.1,1.1 1.27,0.75 2.32,1.76 3.2,3 0.69,0.96 1.15,1.99 1.44,3.11 0.27,1.1 0.34,2.18 0.13,3.19 1.36,0.14 2.65,0.6 3.83,1.33 1.17,0.72 2.18,1.68 3.01,2.88 0.83,1.22 1.36,2.53 1.57,4 0.19,1.46 -0.02,2.88 -0.66,4.29 -0.63,1.39 -1.7,2.65 -3.24,3.7l-9.52 6.66 0.01 -0.01zm1.03 -7.22l5.7 -4c0.83,-0.59 1.27,-1.35 1.31,-2.31 0.05,-0.95 -0.25,-1.86 -0.86,-2.73 -0.57,-0.83 -1.31,-1.38 -2.19,-1.65 -0.88,-0.27 -1.74,-0.1 -2.59,0.51l-5.7 3.99 4.32 6.19 0.01 0zm-7.39 -10.54l5.14 -3.61c0.8,-0.57 1.23,-1.28 1.28,-2.16 0.05,-0.88 -0.19,-1.71 -0.75,-2.51 -0.56,-0.8 -1.25,-1.31 -2.08,-1.55 -0.83,-0.22 -1.65,-0.07 -2.44,0.5l-5.16 3.61 4 5.71 0.01 -0.01zm33.93 -2.77l-20.14 -23.17 13.96 -12.13 3.64 4.18 -9.73 8.44 4.17 4.78 8.96 -7.79 3.7 4.28 -8.96 7.79 4.93 5.67 10.22 -8.9 3.7 4.28 -14.46 12.56 0.01 0.02zm22.79 -21.43l-23.53 -19.73 9.17 -10.93c0.63,-0.75 1.36,-1.3 2.21,-1.65 0.86,-0.37 1.77,-0.53 2.71,-0.5 0.95,0.05 1.88,0.22 2.83,0.61 0.95,0.39 1.83,0.92 2.65,1.6 1.14,0.96 2.02,2.15 2.65,3.54 0.63,1.41 0.86,2.91 0.74,4.55 0.34,-0.21 0.77,-0.37 1.3,-0.43 0.51,-0.1 1.1,-0.05 1.71,0.08 0.63,0.14 1.2,0.43 1.74,0.9l5.46 4.2c0.48,0.42 1.01,0.69 1.51,0.8 0.51,0.13 0.83,0.1 0.96,-0.05l1.25 1.04 -3.59 4.28c-1.74,-0.69 -3.61,-1.78 -5.54,-3.3 -0.43,-0.43 -1.07,-1.01 -1.89,-1.7 -0.69,-0.57 -1.24,-0.93 -1.68,-1.1 -0.43,-0.16 -0.92,-0.13 -1.39,0.16 -0.48,0.27 -1.1,0.82 -1.81,1.65l-3.36 4.02 9.34 7.84 -3.43 4.08 0 0.03zm-10.27 -15.57l4.37 -5.19c0.69,-0.82 0.92,-1.71 0.71,-2.72 -0.22,-0.98 -0.72,-1.8 -1.51,-2.47 -0.77,-0.64 -1.6,-0.95 -2.56,-0.93 -0.95,0.02 -1.77,0.43 -2.48,1.3l-4.32 5.14 5.81 4.87 -0.03 0zm30.91 -9.03l-20.21 -24.7 3.61 -5.16 30.27 10.29 -3.25 4.64 -6.28 -1.97 -5.11 7.3 4.21 4.96 -3.26 4.64 0.02 0.02zm-4.32 -13.93l3.44 -4.9 -10.95 -3.99 7.51 8.9 0.01 -0.02zm26.69 -20.32l-22.02 -12.21 -3.68 6.63 -4.84 -2.68 9.76 -17.61 4.85 2.68 -3.54 6.38 22.02 12.21 -2.53 4.58 -0.02 0.02zm11.11 -21.28l-27.84 -12.98 2.24 -4.82 27.84 12.97 -2.24 4.84 0 -0.01zm-7.09 -21.22c-2.21,-0.95 -4.32,-2.2 -6.28,-3.76 -1.97,-1.55 -3.43,-3.47 -4.37,-5.78 -0.96,-2.31 -0.92,-4.87 0.13,-7.73 0.71,-1.94 1.92,-3.57 3.65,-4.87 1.74,-1.31 3.97,-2.09 6.7,-2.32 2.72,-0.24 5.82,0.22 9.31,1.36 2.05,0.74 3.88,1.65 5.48,2.72 1.6,1.07 2.93,2.32 3.99,3.75 1.06,1.44 1.71,3.03 1.97,4.78 0.27,1.76 0.03,3.64 -0.71,5.66 -0.56,1.52 -1.39,2.88 -2.51,4.08 -1.1,1.22 -2.5,2.15 -4.17,2.8 -1.67,0.67 -3.62,0.96 -5.83,0.9 -2.21,-0.07 -4.66,-0.6 -7.34,-1.56l-0.01 -0.01zm-5.22 -14.58c-0.42,1.25 -0.31,2.51 0.32,3.79 0.63,1.27 1.62,2.44 3,3.51 1.35,1.06 2.88,1.92 4.55,2.56 1.67,0.57 3.32,0.86 4.93,0.9 1.62,0.02 3.05,-0.34 4.29,-1.01 1.24,-0.69 2.15,-1.8 2.69,-3.29 0.39,-1.1 0.5,-2.16 0.29,-3.15 -0.19,-1.01 -0.63,-1.92 -1.3,-2.77 -0.69,-0.83 -1.52,-1.59 -2.53,-2.26 -1.01,-0.66 -2.12,-1.22 -3.32,-1.63 -1.33,-0.48 -2.66,-0.8 -4,-0.95 -1.33,-0.14 -2.59,-0.08 -3.79,0.16 -1.22,0.25 -2.27,0.71 -3.17,1.41 -0.92,0.69 -1.57,1.62 -1.97,2.74l0.01 0zm32.29 -14.65l-29.5 -8.47 1.46 -5.11 22.82 -4.1 -20 -5.74 1.44 -5.03 29.5 8.46 -1.44 5.05 -23.13 4.01 20.32 5.82 -1.48 5.11 0.01 -0.01z"/>
   <path class="fil4" d="M171.82 539.27c0.08,7.52 -2.51,14.76 -1.59,22.36 0.61,5.08 3.88,14.74 9.29,13.53 2.93,-0.66 5.69,-2.08 9.14,-2.79 10.43,-2.18 19.95,0.46 29.27,4.71 33.56,15.26 35.62,22.98 68.47,4.17 11.6,-6.63 26.44,-14.61 33.52,-25.75 7.04,-11.06 -3.53,-12.42 -16.49,-5.05 -9.49,5.4 -19.91,12.51 -30.66,16.68 -7.69,2.97 -12.58,1.65 -19.97,-0.61 -3.25,-1.01 -16.33,-4.22 -17.95,-5.42 9.41,-4.64 27.6,8.38 43.4,-1.87 6.39,-4.17 9.71,-11.2 2.31,-14.71 -3.94,-1.88 -18.28,-0.39 -24.3,-0.69 -10.77,-0.51 -12.34,-1.63 -19.94,-6.23 -16.2,-9.82 -27.36,-5.28 -41.36,-1.01 -11.2,3.43 -16.78,1.56 -23.16,2.68l0.02 -0.01zm108.97 0.93c1.94,1.62 1.15,-0.42 5.61,3.56 3.82,-1.12 9.46,-7.12 17.24,-8.76 -3.41,-7.97 -19.6,3.35 -22.87,5.21l0.01 -0.01zm7.83 6.97c0.83,5.6 0.34,4.08 -1.8,8.09 3.12,-1.01 14.47,-8.86 20.26,-11.19 2.09,-0.83 6.6,-1.74 7.93,-2.52 -0.27,-3.14 -2.31,-4 -5.63,-3.78 -9.44,0.66 -15.87,7.83 -20.74,9.39l-0.01 0.01z"/>
   <path class="fil7" d="M250.77 533.92c-2.97,-7.83 9.64,-15.05 -3.05,-31.76 -4.12,-5.43 -13.29,-10.74 -20.61,-21.26 -6.03,-8.67 -8.12,-21.58 -8.33,-33.63 -0.13,-7.71 1.44,-32.66 4.82,-37.72l9.65 12.74c3.47,4.43 6.57,8.17 10.4,12.58 7.27,8.36 14.45,16.63 18.28,27.13 8.04,22.07 3.62,38.13 -2.27,57.91 -0.82,2.8 -1.94,5.42 -3.12,8.05 -1.22,2.71 -2.24,6.02 -5.78,5.98l0 -0.03zm16.33 -25.83c1.88,-7.19 4.32,-12.08 5.58,-20.48 2.47,-16.48 -0.8,-27.75 -10.38,-40.74 -1.73,-2.36 -3.9,-5.46 -5.66,-7.3 -1.24,-1.3 -5.59,-5.46 -6.39,-6.87 33.33,-0.21 52.44,26.78 33.63,56.54 -2.68,4.22 -12.5,16.8 -16.78,18.86l0 -0.02z"/>
   <polygon class="fil1" points="105.26,198.04 112.93,198.04 112.93,157 105.26,157 "/>
   <path class="fil1" d="M199.43 198.04l8.43 0 -18.38 -41.03 -8.43 0 -18.39 41.03 8.37 0 3.51 -7.73 21.43 0 3.46 7.73 -0.01 0zm-6.56 -14.93l-15.23 0 7.61 -17.48 7.62 17.48z"/>
   <path class="fil1" d="M294.38 197.52l-12.42 -13.99c7.79,-1.57 10.37,-7.26 10.37,-12.9 0,-7.12 -5.1,-13.56 -14.76,-13.61 -6.51,0.07 -13,0 -19.49,0l0 41.03 7.73 0 0 -13.7 7.44 0 11.92 13.7 9.2 0 0 -0.53zm-16.8 -33.3c4.86,0 7.04,3.29 7.04,6.57 0,3.3 -2.12,6.59 -7.04,6.59l-11.78 0 0 -13.17 11.78 0z"/>
   <path class="fil1" d="M374.79 190.43l-23 0 0 -9.25 22.19 0 0 -7.2 -22.19 0 0 -9.49 23 0 0 -7.48 -30.67 0c0,13.68 0,27.39 0,41.03l30.67 0 0 -7.61z"/>
  </g>
  <path class="fil8" d="M4433.27 730.74l672.02 33.19 -0.05 0.34c-751.58,37.26 -1100.56,37.14 -1852.01,0.02l-0.03 -0.42 671.1 -33.13 14.23 0 0.8 -3.9 -13.22 -4.02 -621.01 -224.09 645.97 160.69 15.59 4.85 2.45 -3.44 -10.78 -7.59 -491.76 -387.9 541.07 335.39 12.77 8.96c1.23,-0.83 2.45,-1.68 3.65,-2.52l-7.07 -10.22 -303.08 -504.74 371.03 469.63 8.33 11.95 4.49 -1.44 -2.51 -11.54 -77.93 -560.8 156.07 547.21 3 13.6 4.75 0 2.41 -11.55 156.69 -549.26 -77.54 558.75 -2.9 13.62 4.47 1.41 7.09 -10.18 372.31 -471.39 -301.79 502.9 -8.38 12.01c1.23,0.83 2.47,1.71 3.68,2.51l10.8 -7.53 543.06 -336.75 -489.79 386.54 -12.74 8.85 2.47 3.47 13.22 -4.02 648.28 -161.42 -618.63 223.39 -15.53 4.74c0.29,1.3 0.66,2.56 0.8,3.9l14.14 0 0.01 -0.05z"/>
  <path class="fil1" d="M5670.25 357.28c-10.87,5.63 -17.9,10.8 -21.08,15.49 -4.75,7.29 -7.15,18.24 -7.15,32.87l0 9.33 0 126.25 -24.2 0 -67.63 -131.29 0 77.83 0 6.45 1.56 20.64c1.89,9.53 6.25,16.62 13.06,21.22l1.12 0.98c-13.06,-4.41 -19.56,-18.49 -19.56,-42.29l0 -13.44 0 -78.42 -7.63 -15.06 0 82.59c0,26.2 1.71,43.32 5.14,51.44 3.41,8.16 11.44,14.09 24.06,17.79l12.47 13.3 -77.6 0 -2.29 -3.82 71.73 0 -7.44 -7.92 -66.75 0c11.68,-4.21 19.41,-9.82 23.22,-16.92 3.82,-7.04 5.72,-19.21 5.72,-36.38l0 -114.69 -19.07 -15.94 72.46 0 -20.34 13.64 69.32 135.33 0 -17.22 -59.46 -115.83 20.05 -13.64 2.73 2.73 -17.75 12.04 54.42 106.98 0 -66.92 0 -7.58c0,-16.68 -1.36,-27.78 -4.05,-33.4 -2.73,-5.58 -9.44,-10.95 -20.14,-16.14l65.03 0 0.05 -0.01zm5.04 10.61l-2.59 4.31c-7.39,1.71 -12.37,4.93 -14.97,9.53 -2.65,4.65 -3.97,12.47 -3.97,23.48l0 147.75 -30.75 0 -1.87 -3.82 28.8 0 0 -142.48c0,-13.5 1.77,-22.89 5.22,-28.21 3.47,-5.34 10.17,-8.85 20.09,-10.56l0.03 0.01zm140.37 -10.61l-14.9 16.91 23.51 62.58 5.72 -3.17 -21.22 -56.54 15.2 -17.5 3.72 1.56 -14.47 16.81 20.03 53.48c1.19,-0.83 1.86,-1.36 2,-1.56l4.74 -4c2.88,-2.29 4.7,-3.91 5.43,-4.89 2.5,10.91 6.31,20.64 11.49,29.24 -2.79,-0.14 -4.79,-0.25 -6.02,-0.25 -9.1,0 -15.74,1.42 -19.91,4.26l25.91 70.35 21.46 16.63 -72.31 0 19.74 -16.63 -15.9 -41.86c-10.5,10.61 -18.57,20.69 -24.2,30.27l-3.32 -0.88c5.67,-9.34 14.02,-19.79 25.23,-31.41l1.12 -1.42 -2.69 -6.31c-11.39,9.49 -20.79,20.43 -28.21,32.96l-2.59 -4.17c-4.99,-7.92 -11.34,-16.97 -19.07,-27.08l-1.42 -1.71c-7.58,16.33 -11.34,29.63 -11.34,39.86 0,6.02 1.03,11.1 3.14,15.26 2.05,4.17 7.09,11.1 15.06,20.85 0.63,0.88 1.71,2.19 3.17,4l-77.35 0 -2.88 -3.82 72.95 0 -2.48 -3.04c-6.31,-7.62 -10.46,-13.59 -12.47,-17.85 -1.95,-4.25 -2.94,-9.23 -2.94,-14.97 0,-9.73 4.01,-24.26 11.98,-43.56l-6.25 -6.6c-1.27,3.03 -2.83,7.52 -4.75,13.44l-4.75 14.61c-2.59,7.82 -3.86,14.32 -3.86,19.5 0,5.34 0.93,9.78 2.73,13.3 1.81,3.58 5.63,8.36 11.46,14.47 0.59,0.59 1.42,1.52 2.59,2.74l-71.62 0c13.64,-7.09 24.49,-16.58 32.46,-28.51 7.97,-11.92 15.84,-30.35 23.65,-55.3l0.59 -2c-5.05,-4.31 -12.37,-6.95 -21.9,-7.92 5.24,-7.83 9.29,-15.99 12.18,-24.5 1.31,1.27 2.15,2 2.44,2.29l6.45 6.01c2.16,2.1 4.79,4.26 7.87,6.45l2.53 -6.31 -1.71 -1.42c-4.75,-4.21 -8.75,-7.58 -12.02,-10.17l-1.27 -1.01 2.29 -3.14c5.05,3.33 9.92,7.19 14.61,11.59l19.45 -53.64 -15.2 -16.37 66.05 0 0.07 0.03zm-35.4 46.06l-15.74 41.62c0.88,0.93 1.33,1.52 1.42,1.71l5.92 6.6c3.14,3.41 7.15,8.75 12.04,16.04l1.42 2.15c4.11,-5.18 9,-10.27 14.61,-15.35l-19.66 -52.76 -0.01 0zm-6.39 -16.62l-22.77 60.24c7.23,7.44 13.5,14.81 18.77,22.05l6.56 9.2c0.1,0.1 0.59,0.69 1.46,1.86 0.83,-0.88 1.33,-1.42 1.42,-1.6l2 -2.4c0.29,-0.39 0.82,-1.03 1.56,-1.86 -6.7,-10.32 -14.47,-19.66 -23.32,-27.98l18.33 -48.44 -4 -11.04 -0.02 -0.04zm84.19 41.17c2.1,8.61 7.39,20.38 15.74,35.4 -2.07,-0.29 -3.29,-0.43 -3.58,-0.43l-11.57 -0.98c-5.22,-0.48 -9.1,-0.72 -11.46,-0.72 -0.39,0 -1.36,0.05 -2.88,0.14l23.91 63.51 31.97 28.16 -82.96 0 -2.69 -3.82 76.02 0 -25.76 -22.77 -25.53 -67.53c3.27,-0.83 6.99,-1.22 11.2,-1.22 5.13,0 10.9,0.39 17.21,1.22l-1.76 -3.12c-6.12,-11.28 -10.22,-21.47 -12.33,-30.55l4.46 2.73 0.01 -0.02zm179.63 -70.61l-14.9 16.91 23.53 62.58 5.71 -3.17 -21.22 -56.54 15.21 -17.5 3.7 1.56 -14.47 16.81 20.05 53.48c1.17,-0.83 1.86,-1.36 2,-1.56l4.75 -4c2.88,-2.29 4.7,-3.91 5.42,-4.89 2.5,10.91 6.31,20.64 11.49,29.24 -2.79,-0.14 -4.79,-0.25 -6.02,-0.25 -9.09,0 -15.74,1.42 -19.89,4.26l25.91 70.35 21.47 16.63 -72.32 0 19.76 -16.63 -15.9 -41.86c-10.51,10.61 -18.57,20.69 -24.2,30.27l-3.33 -0.88c5.67,-9.34 14.02,-19.79 25.23,-31.41l1.12 -1.42 -2.69 -6.31c-11.39,9.49 -20.77,20.43 -28.21,32.96l-2.59 -4.17c-4.99,-7.92 -11.34,-16.97 -19.06,-27.08l-1.42 -1.71c-7.56,16.33 -11.34,29.63 -11.34,39.86 0,6.02 1.01,11.1 3.12,15.26 2.07,4.17 7.09,11.1 15.06,20.85 0.64,0.88 1.71,2.19 3.17,4l-77.35 0 -2.88 -3.82 72.95 0 -2.5 -3.04c-6.31,-7.62 -10.46,-13.59 -12.45,-17.85 -1.95,-4.25 -2.94,-9.23 -2.94,-14.97 0,-9.73 4,-24.26 11.98,-43.56l-6.27 -6.6c-1.27,3.03 -2.83,7.52 -4.74,13.44l-4.75 14.61c-2.59,7.82 -3.88,14.32 -3.88,19.5 0,5.34 0.93,9.78 2.74,13.3 1.81,3.58 5.63,8.36 11.44,14.47 0.59,0.59 1.42,1.52 2.59,2.74l-71.63 0c13.64,-7.09 24.49,-16.58 32.46,-28.51 7.97,-11.92 15.84,-30.35 23.65,-55.3l0.6 -2c-5.05,-4.31 -12.37,-6.95 -21.9,-7.92 5.22,-7.83 9.29,-15.99 12.16,-24.5 1.33,1.27 2.16,2 2.45,2.29l6.45 6.01c2.15,2.1 4.79,4.26 7.87,6.45l2.53 -6.31 -1.71 -1.42c-4.75,-4.21 -8.76,-7.58 -12.04,-10.17l-1.27 -1.01 2.29 -3.14c5.05,3.33 9.93,7.19 14.61,11.59l19.46 -53.64 -15.2 -16.37 66.05 0 0.05 0.03zm-35.39 46.06l-15.74 41.62c0.88,0.93 1.31,1.52 1.42,1.71l5.92 6.6c3.12,3.41 7.15,8.75 12.02,16.04l1.42 2.15c4.11,-5.18 9,-10.27 14.61,-15.35l-19.66 -52.76 0.01 0zm-6.41 -16.62l-22.77 60.24c7.24,7.44 13.5,14.81 18.78,22.05l6.55 9.2c0.1,0.1 0.59,0.69 1.48,1.86 0.83,-0.88 1.31,-1.42 1.42,-1.6l2 -2.4c0.29,-0.39 0.83,-1.03 1.56,-1.86 -6.7,-10.32 -14.47,-19.66 -23.32,-27.98l18.33 -48.44 -4.01 -11.04 -0.01 -0.04zm84.19 41.17c2.1,8.61 7.39,20.38 15.74,35.4 -2.07,-0.29 -3.27,-0.43 -3.57,-0.43l-11.59 -0.98c-5.22,-0.48 -9.09,-0.72 -11.44,-0.72 -0.39,0 -1.36,0.05 -2.88,0.14l23.91 63.51 31.99 28.16 -82.96 0 -2.69 -3.82 76.02 0 -25.76 -22.77 -25.53 -67.53c3.27,-0.83 6.98,-1.22 11.19,-1.22 5.14,0 10.91,0.39 17.22,1.22l-1.77 -3.12c-6.1,-11.28 -10.22,-21.47 -12.33,-30.55l4.46 2.73 -0.01 -0.02zm197.52 -66.16l-1.56 2.74c-8.61,15 -16.04,30.01 -22.34,45.03l-1.27 3.33 -1.86 -1.01c-2.24,-14.47 -7.33,-25.97 -15.41,-34.48 -8.03,-8.46 -17.75,-12.71 -29.13,-12.71 -12.18,0 -22.31,5.28 -30.47,15.9 -10.21,13.15 -15.35,35.5 -15.35,66.98 0,27.08 4.7,48.3 14.14,63.65 9.44,15.35 22.55,23.01 39.3,23.01 13.4,0 24.12,-4.44 32.08,-13.35 8.03,-8.9 12.74,-21.6 14.32,-38.13 0.35,-4 2,-6.02 4.85,-6.02 3.76,0 5.63,3.08 5.63,9.29 0,9.23 -2.1,18.82 -6.31,28.75 -8.9,20.96 -27.24,31.49 -55.1,31.49 -24.84,0 -44.6,-8.7 -59.21,-26.17 -14.61,-17.45 -21.96,-41.03 -21.96,-70.76 0,-27.37 7.56,-50.37 22.77,-68.89 15.2,-18.53 34.07,-27.82 56.66,-27.82 10.66,0 22.89,2.65 36.52,7.87 7.19,2.79 13.09,4.17 17.79,4.17 5.05,0 9.58,-1.42 13.6,-4.21l2.29 1.31 0.01 0.02zm-41.5 24.84c-8.65,-6.99 -16.87,-10.51 -24.55,-10.51 -24.65,0 -36.96,23.62 -36.96,70.85 0,21.47 2.84,39.36 8.51,53.68 5.72,14.28 13.73,23.53 24.06,27.72l0 1.42c-11.25,-2.29 -20.21,-10.95 -26.89,-26.01 -6.7,-15.02 -10.08,-34.07 -10.08,-57.12 0,-49.37 13.54,-74.07 40.58,-74.07 9.14,0 17.6,4.05 25.33,12.18l0 1.86 -0.01 0.03zm46.68 98.47c-1.56,23.65 -8.16,41.71 -19.85,54.08 -11.68,12.37 -28.07,18.53 -49.04,18.53 -15.99,0 -30.8,-4.87 -44.6,-14.71l0 -1.19c12.21,8.06 26.99,12.08 44.31,12.08 18.86,0 34.33,-6.06 46.25,-18.18 5.81,-5.92 10.11,-12.56 12.92,-19.95 2.73,-7.33 4.6,-17.07 5.58,-29.24l0.29 -3.27 4.15 1.86 -0.01 0zm5.28 -116.31l-1.56 2.73c-10.42,17.8 -18.74,33.98 -24.94,48.61l-3.86 -1.86 1.56 -3.57c4.79,-10.08 9,-18.39 12.63,-25l11.44 -20.34 1.46 -2.59 3.29 2 -0.02 0z"/>
  <path class="fil1" d="M5549.2 674.47l-15.88 0 -4.44 -13.33 -29.53 0 -4.46 13.33 -15.77 0 25.94 -74.12 18.09 0 26.06 74.12zm-35.03 -57.27l-10.17 30.27 20.32 0 -10.17 -30.27 0.01 0z"/>
  <path id="_1" class="fil1" d="M5588.92 675.95c-11.07,0 -20.3,-3.7 -27.64,-11.12 -7.27,-7.34 -10.91,-16.48 -10.91,-27.42 0,-11.02 3.64,-20.16 10.91,-27.43 7.34,-7.41 16.55,-11.12 27.64,-11.12 6.7,0 12.9,1.57 18.57,4.73 5.69,3.14 10.11,7.39 13.29,12.74l-12.61 7.3c-1.83,-3.32 -4.44,-5.91 -7.83,-7.77 -3.38,-1.88 -7.19,-2.8 -11.43,-2.8 -7.2,0 -13.03,2.26 -17.47,6.77 -4.37,4.58 -6.56,10.45 -6.56,17.58 0,7.07 2.19,12.89 6.56,17.47 4.44,4.52 10.27,6.77 17.47,6.77 4.23,0 8.06,-0.95 11.48,-2.8 3.43,-1.88 6.02,-4.43 7.77,-7.68l12.61 7.3c-3.17,5.37 -7.61,9.61 -13.29,12.76 -5.69,3.14 -11.87,4.71 -18.57,4.71l0 -0.01z"/>
  <path id="_2" class="fil1" d="M5664.21 675.95c-11.07,0 -20.3,-3.7 -27.64,-11.12 -7.27,-7.34 -10.91,-16.48 -10.91,-27.42 0,-11.02 3.64,-20.16 10.91,-27.43 7.34,-7.41 16.55,-11.12 27.64,-11.12 6.7,0 12.9,1.57 18.57,4.73 5.69,3.14 10.11,7.39 13.29,12.74l-12.61 7.3c-1.83,-3.32 -4.44,-5.91 -7.83,-7.77 -3.38,-1.88 -7.19,-2.8 -11.43,-2.8 -7.2,0 -13.03,2.26 -17.47,6.77 -4.37,4.58 -6.56,10.45 -6.56,17.58 0,7.07 2.19,12.89 6.56,17.47 4.44,4.52 10.27,6.77 17.47,6.77 4.23,0 8.06,-0.95 11.48,-2.8 3.43,-1.88 6.02,-4.43 7.77,-7.68l12.61 7.3c-3.17,5.37 -7.61,9.61 -13.29,12.76 -5.69,3.14 -11.87,4.71 -18.57,4.71l0 -0.01z"/>
  <path id="_3" class="fil1" d="M5761.5 674.47l-15.77 0 -14.94 -25.73 -11.12 0 0 25.73 -14.61 0 0 -74.12 29.65 0c6.86,0 12.68,2.41 17.47,7.2 4.81,4.81 7.2,10.59 7.2,17.36 0,4.58 -1.31,8.85 -3.93,12.76 -2.61,3.91 -6.07,6.86 -10.38,8.85l16.41 27.95 0.01 -0.01zm-26.79 -60.46l-15.03 0 0 21.92 15.03 0c2.76,0 5.11,-1.07 7.09,-3.24 1.97,-2.15 2.97,-4.75 2.97,-7.77 0,-3.04 -0.99,-5.61 -2.97,-7.73 -1.97,-2.12 -4.33,-3.17 -7.09,-3.17l0 -0.01z"/>
  <polygon id="_4" class="fil1" points="5784.69,643.88 5784.69,660.5 5815.92,660.5 5815.92,674.47 5770.09,674.47 5770.09,600.36 5815.39,600.36 5815.39,614.33 5784.69,614.33 5784.69,630.12 5812.75,630.12 5812.75,643.88 "/>
  <path id="_5" class="fil1" d="M5826.21 600.36l29.42 0c10.17,0 18.64,3.57 25.41,10.7 6.86,7.07 10.27,15.84 10.27,26.38 0,10.51 -3.41,19.29 -10.27,26.36 -6.77,7.13 -15.26,10.7 -25.41,10.7l-29.42 0 0 -74.12 0 -0.01zm14.61 60.14l14.82 0c6.42,0 11.65,-2.12 15.67,-6.35 4.02,-4.37 6.03,-9.95 6.03,-16.72 0,-6.86 -2,-12.39 -6.03,-16.63 -4.02,-4.31 -9.23,-6.45 -15.67,-6.45l-14.82 0 0 46.15 0 0.01z"/>
  <polygon id="_6" class="fil1" points="5901.69,674.47 5901.69,600.36 5916.3,600.36 5916.3,674.47 "/>
  <polygon id="_7" class="fil1" points="5924.56,600.36 5979.09,600.36 5979.09,614.33 5959.09,614.33 5959.09,674.47 5944.47,674.47 5944.47,614.33 5924.56,614.33 "/>
  <path id="_8" class="fil1" d="M6045.37 674.47l-15.88 0 -4.44 -13.33 -29.53 0 -4.46 13.33 -15.77 0 25.94 -74.12 18.09 0 26.06 74.12zm-35.04 -57.27l-10.17 30.27 20.32 0 -10.17 -30.27 0.01 0z"/>
  <polygon id="_9" class="fil1" points="6041.66,600.36 6096.19,600.36 6096.19,614.33 6076.18,614.33 6076.18,674.47 6061.57,674.47 6061.57,614.33 6041.66,614.33 "/>
  <polygon id="_10" class="fil1" points="6104.36,674.47 6104.36,600.36 6118.96,600.36 6118.96,674.47 "/>
  <path id="_11" class="fil1" d="M6195.09 664.84c-7.48,7.41 -16.58,11.12 -27.32,11.12 -10.72,0 -19.82,-3.7 -27.32,-11.12 -7.41,-7.55 -11.12,-16.69 -11.12,-27.42 0,-10.81 3.7,-19.91 11.12,-27.32 7.48,-7.48 16.59,-11.23 27.32,-11.23 10.72,0 19.84,3.73 27.32,11.23 7.48,7.41 11.23,16.51 11.23,27.32 0,10.8 -3.75,19.94 -11.23,27.42zm-44.36 -9.95c4.52,4.52 10.19,6.77 17.04,6.77 6.86,0 12.53,-2.26 17.05,-6.77 4.58,-4.58 6.87,-10.4 6.87,-17.47 0,-7.07 -2.29,-12.89 -6.87,-17.47 -4.58,-4.58 -10.29,-6.88 -17.05,-6.88 -6.77,0 -12.45,2.29 -17.04,6.88 -4.58,4.58 -6.88,10.4 -6.88,17.47 0,7.07 2.29,12.89 6.88,17.47z"/>
  <polygon id="_12" class="fil1" points="6259.47,645.57 6259.47,600.36 6274.07,600.36 6274.07,674.47 6262.95,674.47 6231.18,629.16 6231.18,674.47 6216.58,674.47 6216.58,600.36 6227.7,600.36 "/>
  <path class="fil4" d="M6666.98 648.23l-59.82 0 -23.68 -62.44 -110 0 -22.77 62.44 -58.73 0 106.49 -274.26 58.67 0 109.87 274.26 -0.02 0zm-101.5 -108.78l-38.12 -101.5 -37.03 101.5 75.14 0z"/>
  <line class="fil9 str0" x1="6346.56" y1="357.28" x2="6346.56" y2= "661.8" />
  <polygon class="fil4" points="6670.06,465.09 6670.06,420.2 6625.41,420.2 6625.41,401.43 6670.06,401.43 6670.06,356.77 6689.07,356.77 6689.07,401.43 6733.71,401.43 6733.71,420.2 6689.07,420.2 6689.07,465.09 "/>
  <polygon class="fil4" points="6791.36,461.8 6791.36,416.92 6746.71,416.92 6746.71,398.15 6791.36,398.15 6791.36,353.49 6810.38,353.49 6810.38,398.15 6855.03,398.15 6855.03,416.92 6810.38,416.92 6810.38,461.8 "/>
  <path class="fil1" d="M6760.65 651.88l-1.33 -10.67c-1.83,4.64 -4.36,7.97 -7.58,9.99 -3.2,1.99 -7.61,3.01 -13.24,3.01 -10.17,0 -17.31,-3.85 -21.43,-11.52 -4.15,-7.68 -6.22,-21.76 -6.22,-42.24 0,-9.55 0.48,-17.23 1.48,-22.98 0.99,-5.78 2.53,-10.22 4.61,-13.38 2.51,-3.85 5.87,-6.71 10.02,-8.56 4.15,-1.86 9.32,-2.77 15.49,-2.77 10.4,0 18.07,2.45 23.01,7.37 4.92,4.92 7.39,12.55 7.39,22.93l0 2.45 -16.89 0 0 -1.01c0,-5.78 -1.07,-10.16 -3.25,-13.12 -2.15,-2.94 -5.37,-4.43 -9.64,-4.43 -5.27,0 -8.83,2.02 -10.75,6.03 -1.94,4.04 -2.91,14.73 -2.91,32.03 0,13.68 0.92,22.84 2.77,27.46 1.86,4.61 5.18,6.91 9.99,6.91 4.79,0 8.19,-1.63 10.22,-4.92 2.03,-3.26 3.05,-8.8 3.05,-16.63l0 -3.33 -12.5 0 0 -15.46 29.91 0 0 52.85 -12.21 0 -0.01 0z"/>
  <path id="_1_0" class="fil1" d="M6806.13 595.95l10.38 0c5.27,0 8.9,-1.06 10.93,-3.16 2.03,-2.09 3.05,-5.83 3.05,-11.25 0,-4.84 -1.12,-8.21 -3.33,-10.14 -2.24,-1.94 -6.28,-2.91 -12.16,-2.91l-8.88 0 0 27.46 0 0.01zm-17.4 55.94l0 -96.94 32.34 0c9.78,0 16.84,1.97 21.15,5.95 4.32,3.97 6.46,10.43 6.46,19.42 0,6.3 -1.15,11.25 -3.48,14.89 -2.29,3.64 -5.71,5.75 -10.19,6.39 8.58,2.26 13.06,9.5 13.43,21.7 0,0.56 0,0.96 0,1.27l0.51 12.83c0.16,3.65 0.63,6.57 1.36,8.8 0.75,2.19 1.94,4.11 3.53,5.7l-21.44 0c-0.48,-1.63 -0.9,-3.56 -1.14,-5.75 -0.24,-2.21 -0.42,-5.34 -0.48,-9.34l-0.25 -10.14 0 -2.58c0,-5.61 -1.22,-9.49 -3.59,-11.57 -2.39,-2.09 -7.26,-3.14 -14.61,-3.14l-6.16 0 0 42.55 -17.4 0 -0.03 -0.04z"/>
  <path id="_2_1" class="fil1" d="M6881.95 612.95l15.35 0 -7.73 -40.65 -7.62 40.65 0.01 0zm-25.92 38.93l21.81 -96.94 24.21 0 22.02 96.94 -19.45 0 -4.78 -24.37 -20.75 0 -4.66 24.37 -18.43 0 0.03 0z"/>
  <path id="_3_2" class="fil1" d="M6951.27 637.57l8 0c4.08,0 6.94,-0.31 8.58,-0.88 1.63,-0.59 2.94,-1.59 3.91,-3.04 1.67,-2.51 2.88,-5.95 3.58,-10.34 0.71,-4.39 1.07,-11.41 1.07,-21.05 0,-9.39 -0.43,-16.22 -1.27,-20.5 -0.83,-4.29 -2.26,-7.52 -4.28,-9.7 -1.04,-1.1 -2.41,-1.87 -4.05,-2.29 -1.65,-0.46 -4.25,-0.67 -7.77,-0.67l-7.74 0 0 68.44 -0.04 0.02zm-17.66 14.31l0 -96.94 29.01 0c5.91,0 10.61,0.48 14.14,1.51 3.49,1.01 6.38,2.65 8.64,4.92 3.41,3.32 5.8,7.51 7.21,12.55 1.39,5.07 2.12,12.92 2.12,23.59 0,13.75 -0.48,23.49 -1.44,29.17 -0.96,5.69 -2.61,10.51 -4.92,14.5 -2.21,3.97 -5.34,6.77 -9.28,8.33 -3.97,1.56 -10.85,2.36 -20.62,2.36l-24.84 0 -0.03 0.01z"/>
  <polygon id="_4_3" class="fil1" points="7009.38,651.88 7009.38,554.94 7059.17,554.94 7059.17,571.06 7027.31,571.06 7027.31,593.5 7056.96,593.5 7056.96,608.83 7027.31,608.83 7027.31,635.51 7059.92,635.51 7059.92,651.88 "/>
  <g id="_2026376009040">
   <path class="fil10" d="M7301.87 778.75c-4.07,4.04 -9.03,6.05 -14.88,6.05 -5.84,0 -10.8,-2.01 -14.88,-6.05 -4.03,-4.11 -6.05,-9.09 -6.05,-14.93 0,-5.88 2.02,-10.84 6.05,-14.88 4.08,-4.08 9.03,-6.11 14.88,-6.11 5.84,0 10.81,2.03 14.88,6.11 4.08,4.03 6.12,9 6.12,14.88 0,5.88 -2.04,10.86 -6.12,14.93zm-24.15 -5.42c2.46,2.46 5.55,3.69 9.28,3.69 3.73,0 6.82,-1.23 9.28,-3.69 2.51,-2.5 3.75,-5.67 3.75,-9.51 0,-3.85 -1.24,-7.01 -3.75,-9.52 -2.5,-2.5 -5.59,-3.74 -9.28,-3.74 -3.68,0 -6.78,1.24 -9.28,3.74 -2.5,2.51 -3.75,5.67 -3.75,9.52 0,3.84 1.25,7.01 3.75,9.51z"/>
   <polygon id="_1_0" class="fil10" points="7337.67,743.64 7337.67,751.24 7321.53,751.24 7321.53,760.82 7337.21,760.82 7337.21,768.42 7321.53,768.42 7321.53,783.99 7313.57,783.99 7313.57,743.64 "/>
   <polygon id="_2_1" class="fil10" points="7365.87,767.34 7365.87,776.39 7382.88,776.39 7382.88,783.99 7357.92,783.99 7357.92,743.64 7382.59,743.64 7382.59,751.24 7365.87,751.24 7365.87,759.84 7381.15,759.84 7381.15,767.34 "/>
   <polygon id="_3_2" class="fil10" points="7406.8,763.24 7419.2,783.99 7410.15,783.99 7402.3,770.85 7394.47,783.99 7385.47,783.99 7397.81,763.29 7386.1,743.64 7395.1,743.64 7402.3,755.74 7409.52,743.64 7418.51,743.64 "/>
   <path id="_4_3" class="fil10" d="M7440.58 784.8c-6.03,0 -11.04,-2.01 -15.04,-6.05 -3.96,-4 -5.94,-8.97 -5.94,-14.93 0,-6 1.98,-10.97 5.94,-14.93 4,-4.04 9.01,-6.05 15.04,-6.05 3.66,0 7.03,0.85 10.12,2.56 3.1,1.71 5.5,4.03 7.24,6.95l-6.87 3.98c-1,-1.8 -2.42,-3.22 -4.26,-4.23 -1.85,-1.02 -3.92,-1.53 -6.24,-1.53 -3.91,0 -7.09,1.23 -9.51,3.68 -2.39,2.5 -3.57,5.69 -3.57,9.57 0,3.84 1.19,7.01 3.57,9.51 2.42,2.46 5.6,3.69 9.51,3.69 2.31,0 4.4,-0.51 6.26,-1.53 1.87,-1.02 3.27,-2.41 4.23,-4.18l6.87 3.98c-1.74,2.92 -4.14,5.24 -7.24,6.95 -3.09,1.71 -6.46,2.56 -10.12,2.56z"/>
   <polygon id="_5_4" class="fil10" points="7470.8,767.34 7470.8,776.39 7487.81,776.39 7487.81,783.99 7462.85,783.99 7462.85,743.64 7487.52,743.64 7487.52,751.24 7470.8,751.24 7470.8,759.84 7486.08,759.84 7486.08,767.34 "/>
   <polygon id="_6_5" class="fil10" points="7501.36,743.64 7501.36,776.39 7516.75,776.39 7516.75,783.99 7493.4,783.99 7493.4,743.64 "/>
   <polygon id="_7_6" class="fil10" points="7529.2,743.64 7529.2,776.39 7544.6,776.39 7544.6,783.99 7521.25,783.99 7521.25,743.64 "/>
   <polygon id="_8_7" class="fil10" points="7557.05,767.34 7557.05,776.39 7574.06,776.39 7574.06,783.99 7549.1,783.99 7549.1,743.64 7573.78,743.64 7573.78,751.24 7557.05,751.24 7557.05,759.84 7572.33,759.84 7572.33,767.34 "/>
   <polygon id="_9_8" class="fil10" points="7603,768.25 7603,743.64 7610.96,743.64 7610.96,783.99 7604.91,783.99 7587.61,759.32 7587.61,783.99 7579.65,783.99 7579.65,743.64 7585.71,743.64 "/>
   <path id="_10_9" class="fil10" d="M7637.59 784.8c-6.03,0 -11.04,-2.01 -15.04,-6.05 -3.96,-4 -5.94,-8.97 -5.94,-14.93 0,-6 1.98,-10.97 5.94,-14.93 4,-4.04 9.01,-6.05 15.04,-6.05 3.66,0 7.03,0.85 10.12,2.56 3.1,1.71 5.5,4.03 7.24,6.95l-6.87 3.98c-1,-1.8 -2.42,-3.22 -4.26,-4.23 -1.85,-1.02 -3.92,-1.53 -6.24,-1.53 -3.91,0 -7.09,1.23 -9.51,3.68 -2.39,2.5 -3.57,5.69 -3.57,9.57 0,3.84 1.19,7.01 3.57,9.51 2.42,2.46 5.6,3.69 9.51,3.69 2.31,0 4.4,-0.51 6.26,-1.53 1.87,-1.02 3.27,-2.41 4.23,-4.18l6.87 3.98c-1.74,2.92 -4.14,5.24 -7.24,6.95 -3.09,1.71 -6.46,2.56 -10.12,2.56z"/>
   <polygon id="_11_10" class="fil10" points="7667.81,767.34 7667.81,776.39 7684.81,776.39 7684.81,783.99 7659.85,783.99 7659.85,743.64 7684.53,743.64 7684.53,751.24 7667.81,751.24 7667.81,759.84 7683.09,759.84 7683.09,767.34 "/>
   <path class="fil11" d="M7627.92 499.08c-0.27,7.62 -1.88,21.89 -2.38,25.59 -3.47,26.01 -13.99,56.35 -46.27,56.33 -42.45,0 -49.69,-43.46 -53.89,-82.5 -2.19,-20.48 -0.59,-46.66 2.5,-65.11 8.03,-48.03 52.92,-61.71 77.92,-41.31 9.96,8.13 14.32,20.63 18.08,33.23 0.69,2.29 1.27,4.53 1.6,6.77 0.17,1.17 0.38,2.97 0.44,4.13l-0.6 4.55 57.88 0.42c-7.69,-17.99 -11.41,-25.87 -24.21,-38.28 -9.31,-9.02 -23.15,-19.99 -39.31,-24.01 -17.71,-4.41 -37.91,-7.41 -56.08,-1.94 -11.6,3.49 -21.43,9.79 -29.29,17.78l-7.93 8.55c-0.45,-13.62 1.23,-26.61 2.91,-39.46 1.65,-12.55 3.97,-24.76 6.75,-36.18 4.77,-19.67 7.98,-30.14 16.99,-47.09 6.37,-12 18.9,-26.7 32.58,-31.41 11.25,-3.89 24.84,-4.99 34.31,1.58 9.18,6.36 10.73,19.96 7.35,33.04 -2.95,11.4 -6.39,25.29 2.99,33.94 12.55,11.56 48.9,10.5 48.67,-22.83 -0.17,-25.46 -18.35,-41.8 -35.8,-49.77 -41.98,-19.19 -94.07,-0.54 -123.2,34 -22.88,27.14 -34.03,48.82 -44.91,82.99 -3.46,10.82 -5.77,23.41 -7.57,35.28 -7.99,52.65 -0.52,106.7 23.03,143.09 9.97,15.45 27.67,32.36 45.41,39.68 26.57,10.97 44.85,12 72.84,5.6 40.33,-9.22 72.38,-46.15 78.15,-86.68l-58.95 0z"/>
   <path class="fil11" d="M7233.02 582.75c27.25,1.05 62.86,0.23 91.02,0.23l116.91 0.03 0.25 -95.77 -7.47 -0.19c-1.6,3.68 -3.01,39.64 -15.23,50.38 -10.87,9.55 -20.2,9.57 -38.44,9.57 -31.8,-0.03 -70.78,0.59 -102.53,-0.08 2.38,-6.59 88.32,-97.84 97.73,-106.61 9.05,-8.47 33.29,-36.68 40.42,-48.85 12.27,-20.9 20.56,-40.41 19.53,-70.56 -1.8,-52.97 -44.12,-82.07 -96.39,-82.9 -27.93,-0.43 -53.57,6.71 -69.78,20.18 -8.42,7.01 -15.62,13.87 -20.85,24.11 -12.31,24.14 -10,52.83 25.26,51.27 13.91,-0.61 22.5,-8.18 22.45,-22.5 -0.05,-13.26 -14.7,-53.91 21.13,-63.31 13.98,-3.67 27.47,-1.17 36.74,5.47 24.82,17.78 24.18,86.92 19.37,111.17 -1.18,5.91 -1.94,12.52 -3.25,18.48 -1.39,6.28 -3.16,11.75 -5.11,17.44 -12.54,36.52 -28.27,54.79 -51.74,83.27 -22.26,27.03 -50.27,57.62 -73.85,83.65 -4.72,5.19 -7.96,5.89 -6.17,15.55z"/>
   <path class="fil11 str1" d="M7471.48 675.72c-36.1,1.48 -28.27,-0.12 -24.95,-8.66 1.97,-5.09 8.92,-25.88 11.11,-28.25 2.23,3.44 14.18,33.02 13.84,36.91zm80.42 -13.19c-1.01,-9.62 -0.34,-22.98 -0.37,-32.98 -0.02,-8.41 -1.94,-10.44 6.66,-9.97 5.34,0.28 9.11,1.35 11.77,4.53 4.43,5.28 5.96,19.64 3.68,27.97 -2.69,9.85 -9.86,11.01 -21.73,10.45zm-126.61 50.71c-2.25,0.84 -9.15,-0.08 -10.29,2.1 0.85,1.83 1.94,1.24 4.6,1.24l19.3 -0.28c0.16,-4.15 -4.63,-2.75 -9.04,-2.85 0.16,-5.96 9.55,-28.08 12.46,-35.21 4.75,-0.36 27.55,-1.06 29.97,0.55 2.25,1.37 13.49,29.59 14.24,34.63 -4.32,0.19 -10.79,-1.19 -10.78,2.8 7.41,0.99 84.83,0.73 87.16,-0.35 -0.63,-4.74 -5.44,-0.63 -11.37,-2.94 -0.37,-9.39 -1.19,-40.24 0.35,-47.51 11.39,-0.55 18.41,-0.6 22.21,8.03 3.93,8.94 2.34,16.39 3.51,26.9 3.02,27 34.63,18.03 34.97,11.21 -4.36,-0.12 -2.72,3.91 -10.8,2.24 -7.89,-4.34 1.91,-36.05 -14.67,-45.62 -2.23,-1.29 -4.47,-2.19 -6.9,-2.96 -2.5,-0.8 -6.57,-1.13 -8.41,-1.89 2.72,-1.58 15.54,-1 22.12,-14.89 4.93,-10.41 -1.65,-21.64 -8.14,-26.05 -11.62,-7.86 -41.58,-5.14 -59.97,-5.24 -3.91,-0.02 -5.97,-0.82 -5.91,2.87 14.78,0.93 11.78,-4.87 11.79,27.14l-0.04 66.36 -22.69 0.07c-2.29,-3.82 -3.37,-8.4 -5,-12.21l-25.02 -62.17c-2.77,-7.19 -6.68,-19.04 -10.27,-24.81 -9.17,-0.45 -5.8,4.5 -13.33,21.31 -5.38,12 -26.82,73.41 -30.04,77.56z"/>
   <path class="fil11 str1" d="M7301.31 619.89l10.77 0.37c-0.65,3.81 -20.18,40.44 -23.19,45.75 -2.93,-2.24 -11.19,-18.13 -13.34,-22.34 -2.08,-4.07 -11.49,-20.91 -11.66,-23.66 3.15,-0.43 6.02,0.34 8.1,-1 -1.07,-2.51 -0.82,-1.44 -9.12,-1.56 -3.87,-0.06 -27.86,-0.48 -30.64,0.38l-1.01 0.48c4.47,3.62 7.59,-1.74 10.96,5.27l17.84 32.76c3.68,6.93 9.88,13.74 9.88,23.12 -0.01,11.23 0.12,22.61 -0.12,33.82l-10.08 0.47 -0.07 2.57 41.47 0.22c0,-4.64 -6.39,-2.42 -11.33,-3.36 -0.22,-9.76 0,-19.69 0,-29.48 -0.01,-16.06 -0.37,-11.95 5.4,-23.91 6.28,-13.01 13.49,-27.05 20.21,-39.56 6.64,-0.35 18.48,-1.36 24.63,0.28 0.68,9.46 1,89.87 -0.52,92.69l-1 0.4c-0.13,0.03 -0.37,0.12 -0.55,0.16 -0.18,0.03 -0.38,0.07 -0.59,0.11 -2.86,0.39 -5.17,-0.52 -7.49,0.77 1,2.85 4.39,1.86 8.23,1.85 20.19,-0.04 57.08,0.93 73.42,-0.19 0.75,-4.68 0.86,-27.13 -0.49,-30.24 -3.37,0.29 -2.73,2.29 -3.66,5.74 -1.91,7.08 -6.25,13.53 -11.9,17.66 -4.77,3.49 -8.14,4.01 -15.88,4.08 -4.58,0.03 -15.65,0.52 -19.46,-0.43l-0.1 -48.04c11.78,-2.61 20.4,1.01 24.25,11.19 2.1,5.57 1.02,7.23 3.76,8.6 1.17,-1.57 1.31,-40.15 0,-42.39 -3.35,0.81 -2.08,3.9 -3.69,7.99 -1.33,3.36 -2.2,5.17 -4.61,7.38 -3.91,3.59 -12.87,5.75 -19.55,3.88 -0.39,-6.47 -1.32,-37.48 0.4,-41.21 1.22,-1.47 13.67,-0.8 16.2,-0.78 10.71,0.05 16.94,2.33 22.74,11.01 4.64,6.93 3.52,9.92 6.79,10.75 1.6,-2.6 0.71,-8.38 0.65,-11.92 -0.27,-15.53 4.23,-12.26 -25.97,-12.43l-79.63 0.32 -0.05 2.46z"/>
   <path class="fil11 str1" d="M7620.05 685.74c-2.78,2.37 -1.68,26.92 -0.78,29.69 4.85,-0.25 2.08,-2.2 7.71,-1.65 2.03,0.2 5.43,1.27 7.47,1.87 51.88,15.42 70.44,-41.17 34.76,-56.52 -8.72,-3.75 -18.9,-6.03 -27.3,-10.01 -24.29,-11.49 -1.28,-41.63 21.51,-28.51 12.53,7.21 10.75,21.17 14.89,22.89 2.09,-3.63 2.37,-20.31 0.55,-24.94 -6.99,0.36 1.11,5.05 -13.14,-0.92 -13.72,-5.74 -31.43,-1.26 -40.61,12.05 -5.28,7.65 -5.73,21.07 -0.9,29.42 9.58,16.55 40.15,14.78 47.61,27.63 5.91,10.17 -0.98,22.97 -8.18,26.42 -9.57,4.6 -23.26,2.32 -29.57,-3.43 -7.98,-7.28 -8.85,-14.43 -11.51,-21.45 -0.98,-2.6 0.18,-1.94 -2.51,-2.55z"/>
   <polygon class="fil12" points="7563.95,440.31 7747.4,440.31 7747.4,442.19 7563.95,442.19 "/>
   <polygon class="fil12" points="7563.95,498.13 7747.4,498.13 7747.4,500.01 7563.95,500.01 "/>
   <path class="fil10" d="M7589.36 481.4l-14.98 0 0 -3.3 7.65 -7.88c1.71,-1.81 2.56,-3.31 2.56,-4.48 0,-0.88 -0.27,-1.58 -0.81,-2.12 -0.55,-0.53 -1.24,-0.8 -2.09,-0.8 -1.71,0 -2.96,0.87 -3.75,2.62l-3.72 -2.18c0.69,-1.52 1.68,-2.69 3,-3.51 1.31,-0.82 2.78,-1.23 4.41,-1.23 2.02,0 3.77,0.64 5.22,1.92 1.45,1.26 2.18,2.97 2.18,5.13 0,2.33 -1.23,4.72 -3.68,7.18l-4.39 4.39 8.42 0 0 4.26z"/>
   <path id="_1_11" class="fil10" d="M7600.3 481.85c-2.8,0 -5,-1.06 -6.6,-3.17 -1.58,-2.16 -2.37,-4.98 -2.37,-8.48 0,-3.51 0.79,-6.33 2.37,-8.46 1.6,-2.14 3.8,-3.21 6.6,-3.21 2.83,0 5.04,1.07 6.6,3.21 1.57,2.13 2.37,4.95 2.37,8.46 0,3.5 -0.8,6.33 -2.37,8.48 -1.56,2.11 -3.77,3.17 -6.6,3.17zm4.58 -11.66c0,-2.4 -0.39,-4.22 -1.17,-5.49 -0.78,-1.25 -1.92,-1.88 -3.41,-1.88 -1.5,0 -2.63,0.63 -3.4,1.88 -0.77,1.26 -1.15,3.09 -1.15,5.49 0,2.39 0.38,4.21 1.15,5.46 0.77,1.25 1.9,1.87 3.4,1.87 1.49,0 2.63,-0.63 3.41,-1.89 0.78,-1.26 1.17,-3.07 1.17,-5.44z"/>
   <path id="_2_12" class="fil10" d="M7620.49 481.85c-2.8,0 -5,-1.06 -6.6,-3.17 -1.58,-2.16 -2.37,-4.98 -2.37,-8.48 0,-3.51 0.79,-6.33 2.37,-8.46 1.6,-2.14 3.8,-3.21 6.6,-3.21 2.83,0 5.04,1.07 6.6,3.21 1.57,2.13 2.37,4.95 2.37,8.46 0,3.5 -0.8,6.33 -2.37,8.48 -1.56,2.11 -3.77,3.17 -6.6,3.17zm4.58 -11.66c0,-2.4 -0.39,-4.22 -1.17,-5.49 -0.78,-1.25 -1.92,-1.88 -3.41,-1.88 -1.5,0 -2.63,0.63 -3.4,1.88 -0.77,1.26 -1.15,3.09 -1.15,5.49 0,2.39 0.38,4.21 1.15,5.46 0.77,1.25 1.9,1.87 3.4,1.87 1.49,0 2.63,-0.63 3.41,-1.89 0.78,-1.26 1.17,-3.07 1.17,-5.44z"/>
   <path id="_3_13" class="fil10" d="M7640.67 481.85c-2.8,0 -5,-1.06 -6.6,-3.17 -1.58,-2.16 -2.37,-4.98 -2.37,-8.48 0,-3.51 0.79,-6.33 2.37,-8.46 1.6,-2.14 3.8,-3.21 6.6,-3.21 2.83,0 5.04,1.07 6.6,3.21 1.57,2.13 2.37,4.95 2.37,8.46 0,3.5 -0.8,6.33 -2.37,8.48 -1.56,2.11 -3.77,3.17 -6.6,3.17zm4.58 -11.66c0,-2.4 -0.39,-4.22 -1.17,-5.49 -0.78,-1.25 -1.92,-1.88 -3.41,-1.88 -1.5,0 -2.63,0.63 -3.4,1.88 -0.77,1.26 -1.15,3.09 -1.15,5.49 0,2.39 0.38,4.21 1.15,5.46 0.77,1.25 1.9,1.87 3.4,1.87 1.49,0 2.63,-0.63 3.41,-1.89 0.78,-1.26 1.17,-3.07 1.17,-5.44z"/>
   <polygon id="_4_14" class="fil10" points="7664.86,473.71 7652.85,473.71 7652.85,469.74 7664.86,469.74 "/>
   <path id="_5_15" class="fil10" d="M7682.8 481.4l-14.98 0 0 -3.3 7.65 -7.88c1.71,-1.81 2.56,-3.31 2.56,-4.48 0,-0.88 -0.27,-1.58 -0.81,-2.12 -0.55,-0.53 -1.24,-0.8 -2.09,-0.8 -1.71,0 -2.96,0.87 -3.75,2.62l-3.72 -2.18c0.69,-1.52 1.68,-2.69 3,-3.51 1.31,-0.82 2.78,-1.23 4.41,-1.23 2.02,0 3.77,0.64 5.22,1.92 1.45,1.26 2.18,2.97 2.18,5.13 0,2.33 -1.23,4.72 -3.68,7.18l-4.39 4.39 8.42 0 0 4.26z"/>
   <path id="_6_16" class="fil10" d="M7693.74 481.85c-2.8,0 -5,-1.06 -6.6,-3.17 -1.58,-2.16 -2.37,-4.98 -2.37,-8.48 0,-3.51 0.79,-6.33 2.37,-8.46 1.6,-2.14 3.8,-3.21 6.6,-3.21 2.83,0 5.04,1.07 6.6,3.21 1.57,2.13 2.37,4.95 2.37,8.46 0,3.5 -0.8,6.33 -2.37,8.48 -1.56,2.11 -3.77,3.17 -6.6,3.17zm4.58 -11.66c0,-2.4 -0.39,-4.22 -1.17,-5.49 -0.78,-1.25 -1.92,-1.88 -3.41,-1.88 -1.5,0 -2.63,0.63 -3.4,1.88 -0.77,1.26 -1.15,3.09 -1.15,5.49 0,2.39 0.38,4.21 1.15,5.46 0.77,1.25 1.9,1.87 3.4,1.87 1.49,0 2.63,-0.63 3.41,-1.89 0.78,-1.26 1.17,-3.07 1.17,-5.44z"/>
   <path id="_7_17" class="fil10" d="M7719.1 481.4l-14.98 0 0 -3.3 7.65 -7.88c1.71,-1.81 2.56,-3.31 2.56,-4.48 0,-0.88 -0.27,-1.58 -0.81,-2.12 -0.55,-0.53 -1.24,-0.8 -2.09,-0.8 -1.71,0 -2.96,0.87 -3.75,2.62l-3.72 -2.18c0.69,-1.52 1.68,-2.69 3,-3.51 1.31,-0.82 2.78,-1.23 4.41,-1.23 2.02,0 3.77,0.64 5.22,1.92 1.45,1.26 2.18,2.97 2.18,5.13 0,2.33 -1.23,4.72 -3.68,7.18l-4.39 4.39 8.42 0 0 4.26z"/>
   <path id="_8_18" class="fil10" d="M7733.94 458.97l-4.96 7.28c2.32,0.06 4.21,0.82 5.67,2.27 1.45,1.45 2.18,3.29 2.18,5.51 0,2.29 -0.76,4.17 -2.28,5.64 -1.52,1.45 -3.47,2.18 -5.86,2.18 -2.4,0 -4.34,-0.72 -5.86,-2.18 -1.5,-1.44 -2.24,-3.31 -2.24,-5.64 0,-1.68 0.43,-3.19 1.31,-4.52l6.99 -10.54 5.07 0zm-1.51 15.06c0,-1.07 -0.35,-1.94 -1.06,-2.61 -0.7,-0.68 -1.6,-1.01 -2.69,-1.01 -1.09,0 -1.98,0.33 -2.67,1 -0.69,0.66 -1.04,1.54 -1.04,2.62 0,1.09 0.35,1.97 1.04,2.64 0.69,0.68 1.58,1.01 2.67,1.01 1.09,0 1.98,-0.34 2.69,-1.01 0.71,-0.67 1.06,-1.55 1.06,-2.64z"/>
  </g>
 </g>
</svg>
